<?xml version="1.0" encoding="UTF-8" standalone="no"?>
<!DOCTYPE svg PUBLIC "-//W3C//DTD SVG 1.1//EN" "http://www.w3.org/Graphics/SVG/1.1/DTD/svg11.dtd">
<svg width="100%" height="100%" viewBox="0 0 251 42" version="1.1" xmlns="http://www.w3.org/2000/svg" xmlns:xlink="http://www.w3.org/1999/xlink" xml:space="preserve" xmlns:serif="http://www.serif.com/" style="fill-rule:evenodd;clip-rule:evenodd;stroke-linejoin:round;stroke-miterlimit:2;">
    <g transform="matrix(1.52861,0,0,1.52861,-604.146,-754.748)">
        <g transform="matrix(12,0,0,12,394.953,502.823)">
            <path d="M0.504,-0C0.487,0.003 0.476,-0.005 0.469,-0.025C0.462,-0.044 0.459,-0.073 0.458,-0.112C0.457,-0.169 0.455,-0.216 0.453,-0.255C0.45,-0.293 0.446,-0.327 0.44,-0.358C0.378,-0.329 0.317,-0.302 0.257,-0.278C0.196,-0.253 0.166,-0.241 0.166,-0.242L0.168,-0.029C0.168,-0.019 0.162,-0.013 0.15,-0.01C0.134,-0.007 0.124,-0.016 0.119,-0.038C0.114,-0.059 0.11,-0.093 0.108,-0.14C0.107,-0.182 0.105,-0.212 0.102,-0.229C0.083,-0.22 0.067,-0.215 0.054,-0.216C0.051,-0.221 0.05,-0.232 0.05,-0.249C0.055,-0.251 0.062,-0.253 0.07,-0.256C0.077,-0.259 0.083,-0.262 0.087,-0.266C0.09,-0.269 0.092,-0.275 0.092,-0.282C0.092,-0.315 0.089,-0.367 0.082,-0.436C0.075,-0.499 0.071,-0.55 0.071,-0.591L0.072,-0.637C0.074,-0.642 0.077,-0.645 0.08,-0.646C0.083,-0.647 0.087,-0.648 0.092,-0.648C0.103,-0.648 0.109,-0.644 0.109,-0.637L0.15,-0.285C0.169,-0.29 0.2,-0.302 0.243,-0.321C0.286,-0.34 0.353,-0.372 0.443,-0.415L0.447,-0.637C0.447,-0.663 0.457,-0.676 0.476,-0.676C0.484,-0.676 0.49,-0.673 0.493,-0.667C0.496,-0.661 0.496,-0.651 0.495,-0.637L0.494,-0.464C0.494,-0.405 0.497,-0.329 0.504,-0.235C0.506,-0.216 0.508,-0.199 0.51,-0.182C0.511,-0.165 0.513,-0.148 0.514,-0.133C0.518,-0.092 0.521,-0.066 0.523,-0.055C0.524,-0.044 0.527,-0.034 0.531,-0.025C0.528,-0.012 0.519,-0.003 0.504,-0Z" style="fill-rule:nonzero;stroke:black;stroke-width:0.05px;"/>
        </g>
        <g transform="matrix(12,0,0,12,401.925,502.823)">
            <path d="M0.297,-0C0.228,-0 0.168,-0.012 0.117,-0.037C0.066,-0.061 0.04,-0.104 0.04,-0.165C0.04,-0.187 0.047,-0.208 0.06,-0.229C0.073,-0.25 0.093,-0.267 0.119,-0.28C0.145,-0.293 0.177,-0.299 0.214,-0.299C0.243,-0.299 0.267,-0.298 0.287,-0.295C0.307,-0.292 0.33,-0.285 0.356,-0.273C0.382,-0.261 0.409,-0.242 0.437,-0.216C0.426,-0.262 0.41,-0.302 0.389,-0.337C0.368,-0.372 0.344,-0.399 0.318,-0.418C0.291,-0.436 0.265,-0.446 0.24,-0.446C0.228,-0.446 0.217,-0.444 0.207,-0.44C0.196,-0.435 0.184,-0.429 0.169,-0.421C0.152,-0.41 0.14,-0.405 0.132,-0.405C0.129,-0.405 0.126,-0.406 0.124,-0.409C0.121,-0.411 0.12,-0.414 0.12,-0.417C0.12,-0.444 0.132,-0.464 0.156,-0.479C0.179,-0.494 0.208,-0.5 0.242,-0.499C0.289,-0.496 0.331,-0.476 0.37,-0.44C0.409,-0.403 0.439,-0.357 0.462,-0.302C0.484,-0.247 0.495,-0.194 0.495,-0.141C0.495,-0.132 0.494,-0.12 0.493,-0.104L0.461,-0.106C0.436,-0.157 0.403,-0.194 0.364,-0.216C0.324,-0.237 0.284,-0.248 0.244,-0.248C0.193,-0.248 0.156,-0.24 0.134,-0.225C0.112,-0.21 0.101,-0.187 0.101,-0.158C0.101,-0.127 0.116,-0.103 0.147,-0.084C0.178,-0.065 0.217,-0.056 0.265,-0.056C0.292,-0.056 0.313,-0.057 0.329,-0.061C0.345,-0.064 0.362,-0.068 0.379,-0.073C0.393,-0.078 0.405,-0.081 0.416,-0.083C0.427,-0.085 0.44,-0.086 0.457,-0.086C0.476,-0.086 0.488,-0.085 0.493,-0.082C0.498,-0.079 0.5,-0.073 0.5,-0.064C0.5,-0.057 0.486,-0.049 0.459,-0.039C0.432,-0.029 0.401,-0.02 0.367,-0.012C0.333,-0.004 0.31,-0 0.297,-0Z" style="fill-rule:nonzero;stroke:black;stroke-width:0.05px;"/>
        </g>
        <g transform="matrix(12,0,0,12,408.405,502.823)">
            <path d="M0.212,0.001C0.193,0.001 0.167,-0.028 0.137,-0.086C0.106,-0.143 0.07,-0.216 0.029,-0.305L0,-0.367C0,-0.374 0.004,-0.38 0.012,-0.387C0.02,-0.393 0.032,-0.396 0.048,-0.395C0.052,-0.388 0.065,-0.361 0.086,-0.314C0.111,-0.259 0.133,-0.215 0.151,-0.18C0.168,-0.145 0.19,-0.107 0.215,-0.067C0.226,-0.108 0.239,-0.147 0.254,-0.184C0.268,-0.22 0.289,-0.271 0.318,-0.338L0.333,-0.373C0.337,-0.381 0.345,-0.385 0.356,-0.385C0.364,-0.385 0.371,-0.383 0.377,-0.379C0.383,-0.375 0.386,-0.369 0.386,-0.362C0.386,-0.355 0.383,-0.348 0.376,-0.341C0.371,-0.336 0.365,-0.323 0.356,-0.301C0.347,-0.278 0.338,-0.253 0.329,-0.226C0.304,-0.154 0.282,-0.098 0.263,-0.058C0.244,-0.017 0.227,0.002 0.212,0.001Z" style="fill-rule:nonzero;stroke:black;stroke-width:0.05px;"/>
        </g>
        <g transform="matrix(12,0,0,12,413.037,502.823)">
            <path d="M0.107,0.001C0.092,0.001 0.079,-0.022 0.07,-0.067C0.061,-0.112 0.055,-0.15 0.052,-0.183C0.049,-0.216 0.046,-0.267 0.041,-0.338C0.04,-0.349 0.04,-0.364 0.04,-0.382C0.04,-0.405 0.042,-0.42 0.046,-0.429C0.049,-0.438 0.055,-0.442 0.064,-0.442C0.071,-0.442 0.077,-0.44 0.082,-0.438C0.086,-0.435 0.09,-0.43 0.093,-0.423L0.092,-0.383C0.092,-0.34 0.094,-0.3 0.099,-0.262C0.103,-0.224 0.11,-0.173 0.119,-0.109C0.124,-0.081 0.128,-0.058 0.13,-0.04C0.131,-0.031 0.13,-0.022 0.125,-0.013C0.12,-0.004 0.114,0.001 0.107,0.001ZM0.082,-0.549C0.067,-0.549 0.056,-0.555 0.05,-0.566C0.043,-0.577 0.039,-0.591 0.039,-0.608C0.039,-0.615 0.039,-0.621 0.04,-0.624C0.039,-0.635 0.045,-0.64 0.058,-0.64C0.067,-0.64 0.077,-0.638 0.087,-0.634C0.096,-0.629 0.099,-0.626 0.095,-0.624C0.102,-0.607 0.105,-0.593 0.105,-0.583C0.105,-0.574 0.103,-0.568 0.099,-0.563C0.095,-0.558 0.089,-0.553 0.082,-0.549Z" style="fill-rule:nonzero;stroke:black;stroke-width:0.05px;"/>
        </g>
        <g transform="matrix(12,0,0,12,415.197,502.823)">
            <path d="M0.135,0.004C0.126,0.007 0.12,0.008 0.119,0.008C0.114,0.008 0.108,0.005 0.102,-0C0.08,-0.033 0.064,-0.09 0.055,-0.171C0.045,-0.252 0.04,-0.322 0.04,-0.381C0.04,-0.39 0.047,-0.395 0.06,-0.395C0.08,-0.395 0.09,-0.384 0.09,-0.362C0.09,-0.356 0.09,-0.351 0.089,-0.347C0.095,-0.361 0.106,-0.375 0.123,-0.39C0.14,-0.405 0.159,-0.417 0.181,-0.427C0.203,-0.437 0.225,-0.442 0.248,-0.442C0.319,-0.442 0.371,-0.411 0.404,-0.348C0.437,-0.285 0.453,-0.206 0.453,-0.113C0.453,-0.081 0.45,-0.056 0.443,-0.037C0.436,-0.017 0.427,-0.008 0.416,-0.008C0.404,-0.008 0.398,-0.012 0.398,-0.019C0.403,-0.054 0.405,-0.089 0.405,-0.123C0.405,-0.209 0.39,-0.274 0.36,-0.319C0.33,-0.363 0.29,-0.385 0.241,-0.385C0.217,-0.385 0.194,-0.379 0.172,-0.367C0.149,-0.355 0.131,-0.338 0.118,-0.317C0.104,-0.296 0.097,-0.271 0.097,-0.244C0.097,-0.213 0.099,-0.187 0.102,-0.164C0.105,-0.141 0.111,-0.114 0.118,-0.082C0.126,-0.051 0.132,-0.022 0.135,0.004Z" style="fill-rule:nonzero;stroke:black;stroke-width:0.05px;"/>
        </g>
        <g transform="matrix(12,0,0,12,421.113,502.823)">
            <path d="M0.208,0.488C0.152,0.488 0.105,0.472 0.068,0.441C0.03,0.409 0.007,0.356 0,0.281C-0.001,0.27 0.001,0.261 0.006,0.255C0.01,0.249 0.016,0.246 0.023,0.246C0.031,0.246 0.038,0.249 0.044,0.256C0.05,0.262 0.053,0.27 0.052,0.281C0.052,0.325 0.067,0.36 0.098,0.386C0.128,0.411 0.167,0.424 0.214,0.424C0.241,0.424 0.266,0.414 0.287,0.394C0.308,0.374 0.324,0.346 0.335,0.311C0.346,0.275 0.352,0.234 0.352,0.188C0.352,0.107 0.353,0.029 0.355,-0.047L0.356,-0.098C0.33,-0.071 0.307,-0.051 0.286,-0.038C0.265,-0.025 0.239,-0.019 0.21,-0.019C0.159,-0.019 0.121,-0.033 0.097,-0.061C0.072,-0.088 0.06,-0.131 0.06,-0.188C0.06,-0.221 0.069,-0.255 0.087,-0.291C0.104,-0.326 0.129,-0.356 0.16,-0.38C0.191,-0.404 0.226,-0.416 0.265,-0.416C0.278,-0.416 0.291,-0.415 0.302,-0.412C0.345,-0.403 0.373,-0.363 0.388,-0.293C0.403,-0.223 0.41,-0.132 0.41,-0.021C0.41,0.01 0.409,0.05 0.408,0.101L0.407,0.196C0.407,0.234 0.401,0.276 0.389,0.321C0.377,0.366 0.356,0.405 0.326,0.438C0.296,0.471 0.257,0.488 0.208,0.488ZM0.195,-0.085C0.244,-0.085 0.282,-0.097 0.307,-0.121C0.332,-0.144 0.345,-0.179 0.345,-0.225C0.345,-0.231 0.344,-0.241 0.343,-0.256C0.34,-0.287 0.332,-0.311 0.32,-0.329C0.307,-0.346 0.288,-0.355 0.262,-0.355C0.235,-0.355 0.21,-0.345 0.187,-0.326C0.164,-0.307 0.147,-0.283 0.134,-0.255C0.121,-0.226 0.115,-0.2 0.115,-0.175C0.115,-0.15 0.122,-0.129 0.137,-0.112C0.152,-0.094 0.171,-0.085 0.195,-0.085Z" style="fill-rule:nonzero;stroke:black;stroke-width:0.05px;"/>
        </g>
        <g transform="matrix(12,0,0,12,429.513,502.823)">
            <path d="M0.286,-0.704C0.316,-0.704 0.345,-0.697 0.372,-0.682C0.399,-0.667 0.422,-0.647 0.439,-0.624C0.456,-0.601 0.464,-0.577 0.464,-0.554L0.442,-0.554C0.432,-0.554 0.423,-0.557 0.416,-0.563C0.408,-0.569 0.398,-0.579 0.386,-0.592C0.369,-0.611 0.353,-0.625 0.34,-0.634C0.326,-0.643 0.308,-0.648 0.287,-0.648C0.25,-0.648 0.22,-0.631 0.195,-0.598C0.17,-0.564 0.156,-0.524 0.151,-0.479C0.149,-0.458 0.148,-0.438 0.148,-0.417C0.148,-0.383 0.15,-0.352 0.155,-0.323C0.164,-0.322 0.184,-0.32 0.216,-0.318C0.248,-0.316 0.274,-0.314 0.295,-0.313C0.302,-0.313 0.317,-0.312 0.338,-0.311C0.345,-0.311 0.349,-0.31 0.353,-0.307C0.356,-0.304 0.357,-0.298 0.357,-0.291C0.357,-0.273 0.337,-0.264 0.296,-0.264C0.261,-0.264 0.216,-0.27 0.163,-0.283C0.17,-0.253 0.18,-0.226 0.191,-0.201C0.202,-0.175 0.217,-0.146 0.235,-0.111C0.248,-0.086 0.257,-0.067 0.263,-0.054C0.269,-0.04 0.272,-0.028 0.272,-0.019C0.272,-0.012 0.27,-0.007 0.265,-0.004C0.26,-0.001 0.254,0.001 0.245,0.001C0.227,0.001 0.21,-0.018 0.195,-0.057C0.179,-0.095 0.161,-0.148 0.141,-0.216L0.123,-0.275C0.108,-0.274 0.09,-0.27 0.068,-0.263C0.066,-0.262 0.059,-0.261 0.048,-0.258C0.036,-0.255 0.025,-0.253 0.016,-0.253C0.005,-0.253 0,-0.259 0,-0.272C0,-0.289 0.009,-0.3 0.026,-0.306C0.043,-0.311 0.06,-0.315 0.075,-0.316C0.09,-0.317 0.1,-0.317 0.104,-0.318C0.103,-0.343 0.102,-0.366 0.102,-0.386C0.102,-0.472 0.115,-0.547 0.142,-0.61C0.168,-0.673 0.216,-0.704 0.286,-0.704Z" style="fill-rule:nonzero;stroke:black;stroke-width:0.05px;"/>
        </g>
        <g transform="matrix(12,0,0,12,435.081,502.823)">
            <path d="M0.5,-0.005C0.488,-0.005 0.478,-0.01 0.472,-0.021C0.464,-0.031 0.458,-0.047 0.453,-0.069C0.448,-0.09 0.439,-0.128 0.428,-0.182C0.417,-0.137 0.395,-0.102 0.364,-0.076C0.333,-0.049 0.294,-0.036 0.249,-0.036C0.208,-0.036 0.173,-0.051 0.145,-0.08C0.116,-0.109 0.095,-0.147 0.081,-0.195C0.067,-0.242 0.06,-0.294 0.06,-0.349C0.06,-0.374 0.063,-0.396 0.068,-0.415C0.073,-0.433 0.079,-0.447 0.087,-0.456C0.094,-0.465 0.102,-0.47 0.109,-0.469C0.117,-0.469 0.121,-0.464 0.121,-0.453C0.121,-0.444 0.119,-0.431 0.114,-0.412C0.109,-0.391 0.107,-0.368 0.107,-0.341C0.107,-0.301 0.113,-0.262 0.125,-0.224C0.136,-0.186 0.154,-0.155 0.177,-0.131C0.2,-0.106 0.227,-0.094 0.258,-0.094C0.284,-0.094 0.308,-0.102 0.329,-0.117C0.35,-0.132 0.367,-0.152 0.38,-0.175C0.392,-0.198 0.398,-0.221 0.398,-0.244L0.398,-0.403C0.405,-0.417 0.415,-0.424 0.428,-0.424C0.439,-0.424 0.447,-0.414 0.451,-0.395C0.455,-0.376 0.457,-0.348 0.457,-0.313C0.457,-0.283 0.457,-0.26 0.456,-0.244C0.46,-0.222 0.466,-0.2 0.475,-0.177C0.483,-0.154 0.493,-0.129 0.506,-0.1C0.521,-0.065 0.529,-0.043 0.529,-0.035C0.529,-0.015 0.519,-0.005 0.5,-0.005Z" style="fill-rule:nonzero;stroke:black;stroke-width:0.05px;"/>
        </g>
        <g transform="matrix(12,0,0,12,441.909,502.823)">
            <path d="M0.135,0.004C0.126,0.007 0.12,0.008 0.119,0.008C0.114,0.008 0.108,0.005 0.102,-0C0.08,-0.033 0.064,-0.09 0.055,-0.171C0.045,-0.252 0.04,-0.322 0.04,-0.381C0.04,-0.39 0.047,-0.395 0.06,-0.395C0.08,-0.395 0.09,-0.384 0.09,-0.362C0.09,-0.356 0.09,-0.351 0.089,-0.347C0.095,-0.361 0.106,-0.375 0.123,-0.39C0.14,-0.405 0.159,-0.417 0.181,-0.427C0.203,-0.437 0.225,-0.442 0.248,-0.442C0.319,-0.442 0.371,-0.411 0.404,-0.348C0.437,-0.285 0.453,-0.206 0.453,-0.113C0.453,-0.081 0.45,-0.056 0.443,-0.037C0.436,-0.017 0.427,-0.008 0.416,-0.008C0.404,-0.008 0.398,-0.012 0.398,-0.019C0.403,-0.054 0.405,-0.089 0.405,-0.123C0.405,-0.209 0.39,-0.274 0.36,-0.319C0.33,-0.363 0.29,-0.385 0.241,-0.385C0.217,-0.385 0.194,-0.379 0.172,-0.367C0.149,-0.355 0.131,-0.338 0.118,-0.317C0.104,-0.296 0.097,-0.271 0.097,-0.244C0.097,-0.213 0.099,-0.187 0.102,-0.164C0.105,-0.141 0.111,-0.114 0.118,-0.082C0.126,-0.051 0.132,-0.022 0.135,0.004Z" style="fill-rule:nonzero;stroke:black;stroke-width:0.05px;"/>
        </g>
        <g transform="matrix(12,0,0,12,447.825,502.823)">
            <path d="M0.069,0.189C0.061,0.189 0.056,0.186 0.054,0.18C0.051,0.173 0.05,0.165 0.05,0.154C0.05,0.132 0.055,0.101 0.065,0.061C0.066,0.057 0.068,0.044 0.073,0.023C0.078,0.002 0.08,-0.018 0.08,-0.037L0.079,-0.074C0.071,-0.074 0.066,-0.076 0.064,-0.079C0.061,-0.082 0.06,-0.086 0.06,-0.093C0.06,-0.108 0.063,-0.12 0.068,-0.129C0.073,-0.138 0.082,-0.142 0.095,-0.142C0.112,-0.142 0.123,-0.134 0.129,-0.119C0.134,-0.104 0.137,-0.084 0.137,-0.061L0.136,-0.028C0.136,-0.014 0.133,0.011 0.127,0.048C0.121,0.084 0.113,0.117 0.103,0.146C0.093,0.174 0.082,0.189 0.069,0.189Z" style="fill-rule:nonzero;stroke:black;stroke-width:0.05px;"/>
        </g>
        <g transform="matrix(12,0,0,12,452.889,502.823)">
            <path d="M0.484,-0.005C0.447,-0.005 0.417,-0.012 0.394,-0.027C0.371,-0.041 0.354,-0.063 0.345,-0.094C0.325,-0.059 0.302,-0.034 0.276,-0.017C0.25,0.001 0.222,0.009 0.192,0.009C0.14,0.009 0.1,-0.01 0.072,-0.047C0.044,-0.084 0.03,-0.145 0.03,-0.228C0.03,-0.267 0.034,-0.301 0.043,-0.328C0.051,-0.355 0.065,-0.38 0.085,-0.403C0.094,-0.4 0.1,-0.395 0.103,-0.39C0.105,-0.384 0.106,-0.376 0.106,-0.365C0.106,-0.354 0.105,-0.344 0.103,-0.333C0.1,-0.322 0.099,-0.316 0.098,-0.314C0.093,-0.294 0.09,-0.277 0.088,-0.262C0.085,-0.247 0.084,-0.228 0.084,-0.206C0.084,-0.158 0.093,-0.119 0.112,-0.089C0.13,-0.058 0.156,-0.043 0.191,-0.043C0.23,-0.043 0.261,-0.056 0.284,-0.082C0.306,-0.107 0.317,-0.139 0.317,-0.178L0.31,-0.28C0.31,-0.284 0.313,-0.288 0.319,-0.292C0.324,-0.296 0.331,-0.298 0.338,-0.298C0.347,-0.298 0.354,-0.292 0.357,-0.279C0.36,-0.266 0.363,-0.246 0.366,-0.219C0.37,-0.185 0.375,-0.157 0.38,-0.136C0.385,-0.114 0.394,-0.095 0.409,-0.079C0.424,-0.062 0.445,-0.054 0.473,-0.054C0.507,-0.054 0.532,-0.064 0.547,-0.083C0.562,-0.101 0.57,-0.126 0.57,-0.157C0.57,-0.184 0.565,-0.213 0.555,-0.244C0.544,-0.274 0.532,-0.299 0.517,-0.318C0.516,-0.324 0.52,-0.329 0.527,-0.333C0.534,-0.337 0.541,-0.338 0.548,-0.336C0.56,-0.333 0.571,-0.323 0.582,-0.304C0.592,-0.285 0.6,-0.262 0.607,-0.234C0.613,-0.206 0.616,-0.178 0.616,-0.15C0.616,-0.108 0.606,-0.073 0.585,-0.046C0.564,-0.019 0.53,-0.005 0.484,-0.005Z" style="fill-rule:nonzero;stroke:black;stroke-width:0.05px;"/>
        </g>
        <g transform="matrix(12,0,0,12,460.521,502.823)">
            <path d="M0.15,-0.002C0.147,-0.001 0.143,-0.014 0.14,-0.04C0.136,-0.066 0.131,-0.111 0.125,-0.174C0.116,-0.278 0.105,-0.373 0.094,-0.46C0.082,-0.547 0.067,-0.622 0.05,-0.685C0.049,-0.69 0.051,-0.695 0.056,-0.699C0.061,-0.703 0.069,-0.705 0.078,-0.705C0.083,-0.705 0.086,-0.705 0.089,-0.704C0.106,-0.659 0.118,-0.619 0.125,-0.584C0.132,-0.549 0.138,-0.507 0.144,-0.456L0.149,-0.417C0.189,-0.441 0.226,-0.453 0.259,-0.453C0.32,-0.453 0.363,-0.426 0.389,-0.371C0.414,-0.316 0.427,-0.237 0.427,-0.136C0.427,-0.097 0.425,-0.065 0.42,-0.039C0.415,-0.012 0.41,0.001 0.403,0.001C0.394,0.001 0.385,-0.005 0.374,-0.018L0.374,-0.051L0.375,-0.16C0.375,-0.181 0.374,-0.206 0.373,-0.237C0.371,-0.289 0.361,-0.328 0.342,-0.355C0.323,-0.382 0.29,-0.395 0.244,-0.395C0.213,-0.395 0.185,-0.384 0.158,-0.361C0.158,-0.336 0.159,-0.31 0.162,-0.283C0.164,-0.256 0.167,-0.23 0.17,-0.205C0.175,-0.17 0.178,-0.138 0.181,-0.112C0.183,-0.085 0.184,-0.055 0.184,-0.022C0.18,-0.014 0.175,-0.009 0.171,-0.006C0.166,-0.003 0.159,-0.002 0.15,-0.002Z" style="fill-rule:nonzero;stroke:black;stroke-width:0.05px;"/>
        </g>
        <g transform="matrix(12,0,0,12,466.221,502.823)">
            <path d="M0.107,0.001C0.092,0.001 0.079,-0.022 0.07,-0.067C0.061,-0.112 0.055,-0.15 0.052,-0.183C0.049,-0.216 0.046,-0.267 0.041,-0.338C0.04,-0.349 0.04,-0.364 0.04,-0.382C0.04,-0.405 0.042,-0.42 0.046,-0.429C0.049,-0.438 0.055,-0.442 0.064,-0.442C0.071,-0.442 0.077,-0.44 0.082,-0.438C0.086,-0.435 0.09,-0.43 0.093,-0.423L0.092,-0.383C0.092,-0.34 0.094,-0.3 0.099,-0.262C0.103,-0.224 0.11,-0.173 0.119,-0.109C0.124,-0.081 0.128,-0.058 0.13,-0.04C0.131,-0.031 0.13,-0.022 0.125,-0.013C0.12,-0.004 0.114,0.001 0.107,0.001ZM0.082,-0.549C0.067,-0.549 0.056,-0.555 0.05,-0.566C0.043,-0.577 0.039,-0.591 0.039,-0.608C0.039,-0.615 0.039,-0.621 0.04,-0.624C0.039,-0.635 0.045,-0.64 0.058,-0.64C0.067,-0.64 0.077,-0.638 0.087,-0.634C0.096,-0.629 0.099,-0.626 0.095,-0.624C0.102,-0.607 0.105,-0.593 0.105,-0.583C0.105,-0.574 0.103,-0.568 0.099,-0.563C0.095,-0.558 0.089,-0.553 0.082,-0.549Z" style="fill-rule:nonzero;stroke:black;stroke-width:0.05px;"/>
        </g>
        <g transform="matrix(12,0,0,12,468.381,502.823)">
            <path d="M0.095,-0.007C0.08,-0.08 0.069,-0.166 0.062,-0.266C0.054,-0.365 0.05,-0.462 0.05,-0.555C0.05,-0.602 0.051,-0.643 0.053,-0.679C0.053,-0.688 0.06,-0.692 0.073,-0.692C0.084,-0.692 0.09,-0.689 0.094,-0.684C0.096,-0.679 0.098,-0.67 0.098,-0.659C0.098,-0.551 0.1,-0.459 0.104,-0.383C0.108,-0.306 0.113,-0.224 0.12,-0.136C0.124,-0.079 0.127,-0.041 0.128,-0.021C0.129,-0.01 0.123,-0.005 0.111,-0.005C0.107,-0.005 0.102,-0.006 0.095,-0.007Z" style="fill-rule:nonzero;stroke:black;stroke-width:0.05px;"/>
        </g>
        <g transform="matrix(12,0,0,12,470.397,502.823)">
            <path d="M0.276,-0C0.233,-0 0.194,-0.008 0.158,-0.025C0.122,-0.042 0.093,-0.065 0.072,-0.096C0.051,-0.127 0.04,-0.162 0.04,-0.202C0.04,-0.247 0.048,-0.289 0.065,-0.328C0.082,-0.367 0.106,-0.398 0.139,-0.422C0.171,-0.445 0.209,-0.457 0.252,-0.457C0.297,-0.457 0.332,-0.443 0.355,-0.414C0.378,-0.385 0.389,-0.348 0.388,-0.304C0.388,-0.265 0.373,-0.235 0.342,-0.214C0.311,-0.193 0.271,-0.183 0.223,-0.183C0.216,-0.183 0.205,-0.184 0.19,-0.185C0.166,-0.188 0.149,-0.191 0.139,-0.196C0.129,-0.201 0.124,-0.21 0.124,-0.224C0.124,-0.229 0.125,-0.232 0.128,-0.235C0.131,-0.237 0.136,-0.238 0.144,-0.238C0.153,-0.238 0.168,-0.236 0.19,-0.232C0.211,-0.228 0.23,-0.226 0.247,-0.226C0.308,-0.226 0.339,-0.253 0.339,-0.306C0.339,-0.338 0.333,-0.363 0.322,-0.382C0.31,-0.401 0.289,-0.41 0.26,-0.41C0.228,-0.41 0.199,-0.402 0.174,-0.385C0.149,-0.368 0.129,-0.345 0.116,-0.318C0.102,-0.291 0.095,-0.262 0.095,-0.231C0.095,-0.178 0.11,-0.135 0.139,-0.102C0.168,-0.068 0.214,-0.051 0.275,-0.051C0.282,-0.051 0.295,-0.052 0.312,-0.053C0.319,-0.054 0.328,-0.056 0.339,-0.059C0.35,-0.062 0.357,-0.065 0.362,-0.066C0.391,-0.076 0.412,-0.081 0.425,-0.081C0.435,-0.081 0.443,-0.078 0.448,-0.073C0.431,-0.048 0.407,-0.029 0.374,-0.018C0.341,-0.006 0.308,-0 0.276,-0Z" style="fill-rule:nonzero;stroke:black;stroke-width:0.05px;"/>
        </g>
        <g transform="matrix(12,0,0,12,478.773,502.823)">
            <path d="M0.309,0.001C0.256,0.001 0.214,-0.01 0.183,-0.031C0.152,-0.051 0.13,-0.084 0.115,-0.127C0.1,-0.169 0.091,-0.227 0.086,-0.3L0.057,-0.469C0.054,-0.494 0.051,-0.518 0.046,-0.541C0.041,-0.564 0.039,-0.581 0.039,-0.591C0.039,-0.605 0.043,-0.616 0.051,-0.623C0.059,-0.63 0.073,-0.634 0.094,-0.637C0.098,-0.604 0.101,-0.579 0.102,-0.562C0.109,-0.497 0.116,-0.448 0.121,-0.414C0.126,-0.379 0.132,-0.343 0.14,-0.306C0.191,-0.329 0.241,-0.34 0.288,-0.34C0.331,-0.34 0.369,-0.331 0.402,-0.314C0.435,-0.296 0.461,-0.271 0.48,-0.24C0.499,-0.208 0.508,-0.172 0.508,-0.133C0.508,-0.087 0.488,-0.053 0.448,-0.032C0.407,-0.01 0.361,0.001 0.309,0.001ZM0.452,-0.131C0.453,-0.136 0.453,-0.142 0.453,-0.151C0.453,-0.198 0.437,-0.234 0.405,-0.257C0.372,-0.28 0.326,-0.292 0.267,-0.292C0.23,-0.292 0.202,-0.285 0.182,-0.271C0.161,-0.256 0.151,-0.237 0.151,-0.212C0.151,-0.155 0.167,-0.114 0.198,-0.088C0.229,-0.062 0.276,-0.049 0.34,-0.049C0.371,-0.049 0.396,-0.056 0.417,-0.07C0.438,-0.084 0.449,-0.104 0.452,-0.131Z" style="fill-rule:nonzero;stroke:black;stroke-width:0.05px;"/>
        </g>
        <g transform="matrix(12,0,0,12,485.109,502.823)">
            <path d="M0.276,-0C0.233,-0 0.194,-0.008 0.158,-0.025C0.122,-0.042 0.093,-0.065 0.072,-0.096C0.051,-0.127 0.04,-0.162 0.04,-0.202C0.04,-0.247 0.048,-0.289 0.065,-0.328C0.082,-0.367 0.106,-0.398 0.139,-0.422C0.171,-0.445 0.209,-0.457 0.252,-0.457C0.297,-0.457 0.332,-0.443 0.355,-0.414C0.378,-0.385 0.389,-0.348 0.388,-0.304C0.388,-0.265 0.373,-0.235 0.342,-0.214C0.311,-0.193 0.271,-0.183 0.223,-0.183C0.216,-0.183 0.205,-0.184 0.19,-0.185C0.166,-0.188 0.149,-0.191 0.139,-0.196C0.129,-0.201 0.124,-0.21 0.124,-0.224C0.124,-0.229 0.125,-0.232 0.128,-0.235C0.131,-0.237 0.136,-0.238 0.144,-0.238C0.153,-0.238 0.168,-0.236 0.19,-0.232C0.211,-0.228 0.23,-0.226 0.247,-0.226C0.308,-0.226 0.339,-0.253 0.339,-0.306C0.339,-0.338 0.333,-0.363 0.322,-0.382C0.31,-0.401 0.289,-0.41 0.26,-0.41C0.228,-0.41 0.199,-0.402 0.174,-0.385C0.149,-0.368 0.129,-0.345 0.116,-0.318C0.102,-0.291 0.095,-0.262 0.095,-0.231C0.095,-0.178 0.11,-0.135 0.139,-0.102C0.168,-0.068 0.214,-0.051 0.275,-0.051C0.282,-0.051 0.295,-0.052 0.312,-0.053C0.319,-0.054 0.328,-0.056 0.339,-0.059C0.35,-0.062 0.357,-0.065 0.362,-0.066C0.391,-0.076 0.412,-0.081 0.425,-0.081C0.435,-0.081 0.443,-0.078 0.448,-0.073C0.431,-0.048 0.407,-0.029 0.374,-0.018C0.341,-0.006 0.308,-0 0.276,-0Z" style="fill-rule:nonzero;stroke:black;stroke-width:0.05px;"/>
        </g>
        <g transform="matrix(12,0,0,12,490.485,502.823)">
            <path d="M0.107,0.001C0.092,0.001 0.079,-0.022 0.07,-0.067C0.061,-0.112 0.055,-0.15 0.052,-0.183C0.049,-0.216 0.046,-0.267 0.041,-0.338C0.04,-0.349 0.04,-0.364 0.04,-0.382C0.04,-0.405 0.042,-0.42 0.046,-0.429C0.049,-0.438 0.055,-0.442 0.064,-0.442C0.071,-0.442 0.077,-0.44 0.082,-0.438C0.086,-0.435 0.09,-0.43 0.093,-0.423L0.092,-0.383C0.092,-0.34 0.094,-0.3 0.099,-0.262C0.103,-0.224 0.11,-0.173 0.119,-0.109C0.124,-0.081 0.128,-0.058 0.13,-0.04C0.131,-0.031 0.13,-0.022 0.125,-0.013C0.12,-0.004 0.114,0.001 0.107,0.001ZM0.082,-0.549C0.067,-0.549 0.056,-0.555 0.05,-0.566C0.043,-0.577 0.039,-0.591 0.039,-0.608C0.039,-0.615 0.039,-0.621 0.04,-0.624C0.039,-0.635 0.045,-0.64 0.058,-0.64C0.067,-0.64 0.077,-0.638 0.087,-0.634C0.096,-0.629 0.099,-0.626 0.095,-0.624C0.102,-0.607 0.105,-0.593 0.105,-0.583C0.105,-0.574 0.103,-0.568 0.099,-0.563C0.095,-0.558 0.089,-0.553 0.082,-0.549Z" style="fill-rule:nonzero;stroke:black;stroke-width:0.05px;"/>
        </g>
        <g transform="matrix(12,0,0,12,492.645,502.823)">
            <path d="M0.135,0.004C0.126,0.007 0.12,0.008 0.119,0.008C0.114,0.008 0.108,0.005 0.102,-0C0.08,-0.033 0.064,-0.09 0.055,-0.171C0.045,-0.252 0.04,-0.322 0.04,-0.381C0.04,-0.39 0.047,-0.395 0.06,-0.395C0.08,-0.395 0.09,-0.384 0.09,-0.362C0.09,-0.356 0.09,-0.351 0.089,-0.347C0.095,-0.361 0.106,-0.375 0.123,-0.39C0.14,-0.405 0.159,-0.417 0.181,-0.427C0.203,-0.437 0.225,-0.442 0.248,-0.442C0.319,-0.442 0.371,-0.411 0.404,-0.348C0.437,-0.285 0.453,-0.206 0.453,-0.113C0.453,-0.081 0.45,-0.056 0.443,-0.037C0.436,-0.017 0.427,-0.008 0.416,-0.008C0.404,-0.008 0.398,-0.012 0.398,-0.019C0.403,-0.054 0.405,-0.089 0.405,-0.123C0.405,-0.209 0.39,-0.274 0.36,-0.319C0.33,-0.363 0.29,-0.385 0.241,-0.385C0.217,-0.385 0.194,-0.379 0.172,-0.367C0.149,-0.355 0.131,-0.338 0.118,-0.317C0.104,-0.296 0.097,-0.271 0.097,-0.244C0.097,-0.213 0.099,-0.187 0.102,-0.164C0.105,-0.141 0.111,-0.114 0.118,-0.082C0.126,-0.051 0.132,-0.022 0.135,0.004Z" style="fill-rule:nonzero;stroke:black;stroke-width:0.05px;"/>
        </g>
        <g transform="matrix(12,0,0,12,498.561,502.823)">
            <path d="M0.208,0.488C0.152,0.488 0.105,0.472 0.068,0.441C0.03,0.409 0.007,0.356 0,0.281C-0.001,0.27 0.001,0.261 0.006,0.255C0.01,0.249 0.016,0.246 0.023,0.246C0.031,0.246 0.038,0.249 0.044,0.256C0.05,0.262 0.053,0.27 0.052,0.281C0.052,0.325 0.067,0.36 0.098,0.386C0.128,0.411 0.167,0.424 0.214,0.424C0.241,0.424 0.266,0.414 0.287,0.394C0.308,0.374 0.324,0.346 0.335,0.311C0.346,0.275 0.352,0.234 0.352,0.188C0.352,0.107 0.353,0.029 0.355,-0.047L0.356,-0.098C0.33,-0.071 0.307,-0.051 0.286,-0.038C0.265,-0.025 0.239,-0.019 0.21,-0.019C0.159,-0.019 0.121,-0.033 0.097,-0.061C0.072,-0.088 0.06,-0.131 0.06,-0.188C0.06,-0.221 0.069,-0.255 0.087,-0.291C0.104,-0.326 0.129,-0.356 0.16,-0.38C0.191,-0.404 0.226,-0.416 0.265,-0.416C0.278,-0.416 0.291,-0.415 0.302,-0.412C0.345,-0.403 0.373,-0.363 0.388,-0.293C0.403,-0.223 0.41,-0.132 0.41,-0.021C0.41,0.01 0.409,0.05 0.408,0.101L0.407,0.196C0.407,0.234 0.401,0.276 0.389,0.321C0.377,0.366 0.356,0.405 0.326,0.438C0.296,0.471 0.257,0.488 0.208,0.488ZM0.195,-0.085C0.244,-0.085 0.282,-0.097 0.307,-0.121C0.332,-0.144 0.345,-0.179 0.345,-0.225C0.345,-0.231 0.344,-0.241 0.343,-0.256C0.34,-0.287 0.332,-0.311 0.32,-0.329C0.307,-0.346 0.288,-0.355 0.262,-0.355C0.235,-0.355 0.21,-0.345 0.187,-0.326C0.164,-0.307 0.147,-0.283 0.134,-0.255C0.121,-0.226 0.115,-0.2 0.115,-0.175C0.115,-0.15 0.122,-0.129 0.137,-0.112C0.152,-0.094 0.171,-0.085 0.195,-0.085Z" style="fill-rule:nonzero;stroke:black;stroke-width:0.05px;"/>
        </g>
        <g transform="matrix(12,0,0,12,506.961,502.823)">
            <path d="M0.158,0.356C0.145,0.356 0.129,0.32 0.111,0.249C0.092,0.178 0.076,0.099 0.062,0.012C0.047,-0.076 0.04,-0.13 0.04,-0.153C0.04,-0.22 0.063,-0.27 0.108,-0.301C0.153,-0.332 0.212,-0.347 0.283,-0.347C0.321,-0.347 0.357,-0.339 0.391,-0.324C0.425,-0.308 0.452,-0.286 0.473,-0.257C0.494,-0.228 0.504,-0.194 0.504,-0.156C0.504,-0.109 0.488,-0.075 0.455,-0.056C0.422,-0.037 0.38,-0.027 0.33,-0.027C0.278,-0.027 0.234,-0.036 0.198,-0.054C0.161,-0.071 0.143,-0.095 0.143,-0.126L0.144,-0.136C0.149,-0.141 0.154,-0.144 0.159,-0.144C0.164,-0.144 0.169,-0.142 0.175,-0.139C0.18,-0.135 0.186,-0.131 0.193,-0.126C0.214,-0.111 0.234,-0.098 0.255,-0.089C0.275,-0.08 0.3,-0.075 0.331,-0.075C0.373,-0.075 0.403,-0.083 0.421,-0.098C0.438,-0.113 0.447,-0.136 0.447,-0.169C0.447,-0.193 0.439,-0.214 0.423,-0.233C0.407,-0.252 0.386,-0.266 0.361,-0.276C0.336,-0.286 0.31,-0.291 0.283,-0.291C0.221,-0.291 0.174,-0.278 0.143,-0.252C0.112,-0.225 0.098,-0.181 0.101,-0.12C0.107,-0.016 0.117,0.071 0.13,0.142C0.142,0.213 0.165,0.273 0.198,0.322L0.199,0.324C0.199,0.325 0.198,0.327 0.195,0.329C0.192,0.33 0.189,0.332 0.188,0.333C0.18,0.346 0.17,0.353 0.158,0.356Z" style="fill-rule:nonzero;stroke:black;stroke-width:0.05px;"/>
        </g>
        <g transform="matrix(12,0,0,12,513.489,502.823)">
            <path d="M0.128,-0C0.101,-0.053 0.079,-0.116 0.064,-0.188C0.048,-0.26 0.04,-0.322 0.04,-0.375C0.04,-0.396 0.045,-0.409 0.054,-0.415C0.059,-0.418 0.063,-0.42 0.066,-0.42C0.071,-0.42 0.074,-0.416 0.077,-0.409C0.079,-0.402 0.081,-0.388 0.084,-0.369L0.089,-0.333C0.096,-0.369 0.111,-0.397 0.132,-0.419C0.153,-0.44 0.178,-0.45 0.209,-0.45C0.243,-0.45 0.268,-0.444 0.285,-0.431C0.302,-0.418 0.31,-0.396 0.31,-0.366C0.277,-0.382 0.246,-0.39 0.219,-0.39C0.193,-0.39 0.171,-0.383 0.152,-0.369C0.133,-0.355 0.12,-0.334 0.113,-0.307C0.107,-0.288 0.104,-0.271 0.104,-0.254C0.104,-0.236 0.107,-0.219 0.112,-0.204C0.117,-0.188 0.124,-0.169 0.135,-0.146C0.145,-0.123 0.153,-0.103 0.159,-0.086C0.164,-0.069 0.167,-0.051 0.168,-0.032C0.168,-0.021 0.164,-0.012 0.156,-0.008C0.148,-0.003 0.139,-0 0.128,-0Z" style="fill-rule:nonzero;stroke:black;stroke-width:0.05px;"/>
        </g>
        <g transform="matrix(12,0,0,12,517.209,502.823)">
            <path d="M0.247,0.001C0.208,0.001 0.172,-0.008 0.141,-0.026C0.109,-0.043 0.084,-0.068 0.067,-0.1C0.049,-0.131 0.04,-0.167 0.04,-0.208C0.04,-0.275 0.065,-0.324 0.114,-0.357C0.163,-0.39 0.223,-0.406 0.294,-0.406C0.327,-0.406 0.357,-0.398 0.386,-0.382C0.414,-0.366 0.437,-0.343 0.454,-0.313C0.471,-0.283 0.48,-0.248 0.48,-0.209C0.48,-0.166 0.469,-0.129 0.447,-0.098C0.425,-0.066 0.396,-0.042 0.361,-0.025C0.325,-0.008 0.287,0.001 0.247,0.001ZM0.236,-0.056C0.298,-0.056 0.345,-0.07 0.377,-0.098C0.409,-0.126 0.425,-0.167 0.425,-0.221C0.425,-0.258 0.413,-0.289 0.388,-0.316C0.363,-0.343 0.328,-0.356 0.283,-0.356C0.253,-0.356 0.223,-0.35 0.192,-0.339C0.161,-0.328 0.136,-0.311 0.116,-0.288C0.096,-0.265 0.086,-0.238 0.086,-0.206C0.086,-0.179 0.093,-0.155 0.106,-0.132C0.119,-0.109 0.137,-0.09 0.161,-0.077C0.184,-0.063 0.209,-0.056 0.236,-0.056Z" style="fill-rule:nonzero;stroke:black;stroke-width:0.05px;"/>
        </g>
        <g transform="matrix(12,0,0,12,523.449,502.823)">
            <path d="M0.211,-0.001C0.18,-0.001 0.153,-0.012 0.13,-0.033C0.107,-0.054 0.089,-0.082 0.078,-0.116C0.066,-0.15 0.06,-0.185 0.06,-0.222C0.06,-0.286 0.074,-0.34 0.101,-0.384C0.128,-0.428 0.169,-0.45 0.224,-0.45C0.257,-0.45 0.287,-0.444 0.312,-0.433C0.337,-0.421 0.369,-0.401 0.41,-0.374L0.436,-0.356C0.433,-0.378 0.428,-0.403 0.421,-0.432C0.414,-0.461 0.41,-0.48 0.408,-0.491C0.397,-0.543 0.389,-0.582 0.384,-0.608C0.379,-0.633 0.376,-0.656 0.376,-0.676C0.376,-0.711 0.386,-0.729 0.406,-0.729C0.413,-0.713 0.422,-0.679 0.432,-0.627C0.442,-0.574 0.455,-0.503 0.47,-0.412C0.486,-0.316 0.5,-0.238 0.512,-0.177C0.524,-0.116 0.534,-0.078 0.542,-0.063C0.542,-0.048 0.531,-0.04 0.508,-0.04C0.491,-0.04 0.479,-0.05 0.473,-0.07C0.466,-0.09 0.462,-0.125 0.461,-0.175L0.453,-0.175C0.425,-0.124 0.389,-0.083 0.344,-0.05C0.299,-0.017 0.255,-0.001 0.211,-0.001ZM0.224,-0.05C0.251,-0.05 0.281,-0.062 0.313,-0.085C0.344,-0.108 0.371,-0.136 0.393,-0.169C0.415,-0.202 0.426,-0.231 0.426,-0.258L0.426,-0.288C0.357,-0.36 0.294,-0.396 0.236,-0.396C0.195,-0.396 0.164,-0.381 0.142,-0.352C0.12,-0.322 0.109,-0.283 0.109,-0.235L0.11,-0.214C0.114,-0.163 0.125,-0.123 0.144,-0.094C0.163,-0.065 0.189,-0.05 0.224,-0.05Z" style="fill-rule:nonzero;stroke:black;stroke-width:0.05px;"/>
        </g>
        <g transform="matrix(12,0,0,12,530.193,502.823)">
            <path d="M0.5,-0.005C0.488,-0.005 0.478,-0.01 0.472,-0.021C0.464,-0.031 0.458,-0.047 0.453,-0.069C0.448,-0.09 0.439,-0.128 0.428,-0.182C0.417,-0.137 0.395,-0.102 0.364,-0.076C0.333,-0.049 0.294,-0.036 0.249,-0.036C0.208,-0.036 0.173,-0.051 0.145,-0.08C0.116,-0.109 0.095,-0.147 0.081,-0.195C0.067,-0.242 0.06,-0.294 0.06,-0.349C0.06,-0.374 0.063,-0.396 0.068,-0.415C0.073,-0.433 0.079,-0.447 0.087,-0.456C0.094,-0.465 0.102,-0.47 0.109,-0.469C0.117,-0.469 0.121,-0.464 0.121,-0.453C0.121,-0.444 0.119,-0.431 0.114,-0.412C0.109,-0.391 0.107,-0.368 0.107,-0.341C0.107,-0.301 0.113,-0.262 0.125,-0.224C0.136,-0.186 0.154,-0.155 0.177,-0.131C0.2,-0.106 0.227,-0.094 0.258,-0.094C0.284,-0.094 0.308,-0.102 0.329,-0.117C0.35,-0.132 0.367,-0.152 0.38,-0.175C0.392,-0.198 0.398,-0.221 0.398,-0.244L0.398,-0.403C0.405,-0.417 0.415,-0.424 0.428,-0.424C0.439,-0.424 0.447,-0.414 0.451,-0.395C0.455,-0.376 0.457,-0.348 0.457,-0.313C0.457,-0.283 0.457,-0.26 0.456,-0.244C0.46,-0.222 0.466,-0.2 0.475,-0.177C0.483,-0.154 0.493,-0.129 0.506,-0.1C0.521,-0.065 0.529,-0.043 0.529,-0.035C0.529,-0.015 0.519,-0.005 0.5,-0.005Z" style="fill-rule:nonzero;stroke:black;stroke-width:0.05px;"/>
        </g>
        <g transform="matrix(12,0,0,12,537.021,502.823)">
            <path d="M0.286,0.001C0.208,0.001 0.148,-0.017 0.105,-0.053C0.062,-0.088 0.04,-0.143 0.04,-0.218C0.04,-0.256 0.05,-0.292 0.069,-0.327C0.088,-0.361 0.113,-0.389 0.146,-0.41C0.178,-0.431 0.213,-0.441 0.25,-0.441C0.288,-0.441 0.32,-0.433 0.347,-0.417C0.374,-0.4 0.387,-0.377 0.387,-0.346C0.387,-0.325 0.383,-0.31 0.376,-0.301C0.368,-0.292 0.359,-0.287 0.35,-0.287C0.35,-0.319 0.341,-0.345 0.324,-0.365C0.307,-0.385 0.282,-0.395 0.25,-0.395C0.218,-0.395 0.19,-0.387 0.167,-0.37C0.144,-0.353 0.126,-0.33 0.114,-0.303C0.101,-0.275 0.095,-0.246 0.095,-0.216C0.095,-0.153 0.117,-0.11 0.16,-0.087C0.203,-0.064 0.259,-0.053 0.33,-0.053C0.354,-0.053 0.385,-0.054 0.424,-0.057C0.425,-0.057 0.428,-0.056 0.433,-0.053C0.438,-0.05 0.441,-0.049 0.444,-0.048L0.444,-0.042C0.444,-0.023 0.427,-0.011 0.393,-0.006C0.359,-0.001 0.323,0.001 0.286,0.001Z" style="fill-rule:nonzero;stroke:black;stroke-width:0.05px;"/>
        </g>
        <g transform="matrix(12,0,0,12,542.349,502.823)">
            <path d="M0.201,-0C0.194,0.001 0.19,0.002 0.188,0.002C0.167,0.002 0.153,-0.013 0.146,-0.044C0.138,-0.075 0.134,-0.118 0.134,-0.173C0.134,-0.196 0.135,-0.231 0.136,-0.279C0.137,-0.308 0.138,-0.33 0.138,-0.345C0.056,-0.345 0.015,-0.354 0.015,-0.373C0.015,-0.379 0.016,-0.384 0.018,-0.387C0.019,-0.39 0.023,-0.392 0.029,-0.392L0.138,-0.399C0.137,-0.432 0.136,-0.467 0.133,-0.506C0.13,-0.541 0.129,-0.573 0.128,-0.602C0.128,-0.609 0.131,-0.615 0.137,-0.618C0.143,-0.62 0.149,-0.622 0.156,-0.622C0.164,-0.622 0.171,-0.618 0.176,-0.61C0.181,-0.601 0.184,-0.593 0.184,-0.584L0.191,-0.401L0.274,-0.397C0.287,-0.398 0.298,-0.396 0.307,-0.39C0.316,-0.384 0.32,-0.374 0.321,-0.36C0.307,-0.354 0.292,-0.35 0.275,-0.349C0.258,-0.348 0.23,-0.347 0.191,-0.347C0.191,-0.285 0.194,-0.183 0.2,-0.041C0.2,-0.026 0.2,-0.016 0.201,-0.011C0.201,-0.005 0.201,-0.001 0.201,-0Z" style="fill-rule:nonzero;stroke:black;stroke-width:0.05px;"/>
        </g>
        <g transform="matrix(12,0,0,12,546.381,502.823)">
            <path d="M0.107,0.001C0.092,0.001 0.079,-0.022 0.07,-0.067C0.061,-0.112 0.055,-0.15 0.052,-0.183C0.049,-0.216 0.046,-0.267 0.041,-0.338C0.04,-0.349 0.04,-0.364 0.04,-0.382C0.04,-0.405 0.042,-0.42 0.046,-0.429C0.049,-0.438 0.055,-0.442 0.064,-0.442C0.071,-0.442 0.077,-0.44 0.082,-0.438C0.086,-0.435 0.09,-0.43 0.093,-0.423L0.092,-0.383C0.092,-0.34 0.094,-0.3 0.099,-0.262C0.103,-0.224 0.11,-0.173 0.119,-0.109C0.124,-0.081 0.128,-0.058 0.13,-0.04C0.131,-0.031 0.13,-0.022 0.125,-0.013C0.12,-0.004 0.114,0.001 0.107,0.001ZM0.082,-0.549C0.067,-0.549 0.056,-0.555 0.05,-0.566C0.043,-0.577 0.039,-0.591 0.039,-0.608C0.039,-0.615 0.039,-0.621 0.04,-0.624C0.039,-0.635 0.045,-0.64 0.058,-0.64C0.067,-0.64 0.077,-0.638 0.087,-0.634C0.096,-0.629 0.099,-0.626 0.095,-0.624C0.102,-0.607 0.105,-0.593 0.105,-0.583C0.105,-0.574 0.103,-0.568 0.099,-0.563C0.095,-0.558 0.089,-0.553 0.082,-0.549Z" style="fill-rule:nonzero;stroke:black;stroke-width:0.05px;"/>
        </g>
        <g transform="matrix(12,0,0,12,548.541,502.823)">
            <path d="M0.212,0.001C0.193,0.001 0.167,-0.028 0.137,-0.086C0.106,-0.143 0.07,-0.216 0.029,-0.305L0,-0.367C0,-0.374 0.004,-0.38 0.012,-0.387C0.02,-0.393 0.032,-0.396 0.048,-0.395C0.052,-0.388 0.065,-0.361 0.086,-0.314C0.111,-0.259 0.133,-0.215 0.151,-0.18C0.168,-0.145 0.19,-0.107 0.215,-0.067C0.226,-0.108 0.239,-0.147 0.254,-0.184C0.268,-0.22 0.289,-0.271 0.318,-0.338L0.333,-0.373C0.337,-0.381 0.345,-0.385 0.356,-0.385C0.364,-0.385 0.371,-0.383 0.377,-0.379C0.383,-0.375 0.386,-0.369 0.386,-0.362C0.386,-0.355 0.383,-0.348 0.376,-0.341C0.371,-0.336 0.365,-0.323 0.356,-0.301C0.347,-0.278 0.338,-0.253 0.329,-0.226C0.304,-0.154 0.282,-0.098 0.263,-0.058C0.244,-0.017 0.227,0.002 0.212,0.001Z" style="fill-rule:nonzero;stroke:black;stroke-width:0.05px;"/>
        </g>
        <g transform="matrix(12,0,0,12,553.533,502.823)">
            <path d="M0.276,-0C0.233,-0 0.194,-0.008 0.158,-0.025C0.122,-0.042 0.093,-0.065 0.072,-0.096C0.051,-0.127 0.04,-0.162 0.04,-0.202C0.04,-0.247 0.048,-0.289 0.065,-0.328C0.082,-0.367 0.106,-0.398 0.139,-0.422C0.171,-0.445 0.209,-0.457 0.252,-0.457C0.297,-0.457 0.332,-0.443 0.355,-0.414C0.378,-0.385 0.389,-0.348 0.388,-0.304C0.388,-0.265 0.373,-0.235 0.342,-0.214C0.311,-0.193 0.271,-0.183 0.223,-0.183C0.216,-0.183 0.205,-0.184 0.19,-0.185C0.166,-0.188 0.149,-0.191 0.139,-0.196C0.129,-0.201 0.124,-0.21 0.124,-0.224C0.124,-0.229 0.125,-0.232 0.128,-0.235C0.131,-0.237 0.136,-0.238 0.144,-0.238C0.153,-0.238 0.168,-0.236 0.19,-0.232C0.211,-0.228 0.23,-0.226 0.247,-0.226C0.308,-0.226 0.339,-0.253 0.339,-0.306C0.339,-0.338 0.333,-0.363 0.322,-0.382C0.31,-0.401 0.289,-0.41 0.26,-0.41C0.228,-0.41 0.199,-0.402 0.174,-0.385C0.149,-0.368 0.129,-0.345 0.116,-0.318C0.102,-0.291 0.095,-0.262 0.095,-0.231C0.095,-0.178 0.11,-0.135 0.139,-0.102C0.168,-0.068 0.214,-0.051 0.275,-0.051C0.282,-0.051 0.295,-0.052 0.312,-0.053C0.319,-0.054 0.328,-0.056 0.339,-0.059C0.35,-0.062 0.357,-0.065 0.362,-0.066C0.391,-0.076 0.412,-0.081 0.425,-0.081C0.435,-0.081 0.443,-0.078 0.448,-0.073C0.431,-0.048 0.407,-0.029 0.374,-0.018C0.341,-0.006 0.308,-0 0.276,-0Z" style="fill-rule:nonzero;stroke:black;stroke-width:0.05px;"/>
        </g>
        <g transform="matrix(12,0,0,12,420.927,514.823)">
            <path d="M0.107,0.001C0.092,0.001 0.079,-0.022 0.07,-0.067C0.061,-0.112 0.055,-0.15 0.052,-0.183C0.049,-0.216 0.046,-0.267 0.041,-0.338C0.04,-0.349 0.04,-0.364 0.04,-0.382C0.04,-0.405 0.042,-0.42 0.046,-0.429C0.049,-0.438 0.055,-0.442 0.064,-0.442C0.071,-0.442 0.077,-0.44 0.082,-0.438C0.086,-0.435 0.09,-0.43 0.093,-0.423L0.092,-0.383C0.092,-0.34 0.094,-0.3 0.099,-0.262C0.103,-0.224 0.11,-0.173 0.119,-0.109C0.124,-0.081 0.128,-0.058 0.13,-0.04C0.131,-0.031 0.13,-0.022 0.125,-0.013C0.12,-0.004 0.114,0.001 0.107,0.001ZM0.082,-0.549C0.067,-0.549 0.056,-0.555 0.05,-0.566C0.043,-0.577 0.039,-0.591 0.039,-0.608C0.039,-0.615 0.039,-0.621 0.04,-0.624C0.039,-0.635 0.045,-0.64 0.058,-0.64C0.067,-0.64 0.077,-0.638 0.087,-0.634C0.096,-0.629 0.099,-0.626 0.095,-0.624C0.102,-0.607 0.105,-0.593 0.105,-0.583C0.105,-0.574 0.103,-0.568 0.099,-0.563C0.095,-0.558 0.089,-0.553 0.082,-0.549Z" style="fill-rule:nonzero;stroke:black;stroke-width:0.05px;"/>
        </g>
        <g transform="matrix(12,0,0,12,423.087,514.823)">
            <path d="M0.045,-0.118C0.054,-0.125 0.063,-0.129 0.072,-0.129C0.08,-0.129 0.088,-0.127 0.096,-0.122C0.103,-0.117 0.111,-0.112 0.119,-0.105C0.127,-0.097 0.133,-0.092 0.138,-0.089C0.153,-0.077 0.174,-0.068 0.201,-0.061C0.228,-0.054 0.256,-0.051 0.286,-0.051C0.32,-0.051 0.351,-0.058 0.378,-0.071C0.405,-0.084 0.418,-0.101 0.418,-0.123C0.418,-0.143 0.411,-0.159 0.396,-0.171C0.381,-0.182 0.364,-0.191 0.343,-0.196C0.322,-0.201 0.295,-0.206 0.261,-0.211C0.215,-0.216 0.179,-0.223 0.152,-0.231C0.125,-0.239 0.103,-0.252 0.087,-0.271C0.071,-0.289 0.063,-0.315 0.063,-0.348C0.063,-0.384 0.08,-0.411 0.114,-0.429C0.148,-0.446 0.187,-0.455 0.231,-0.455C0.271,-0.455 0.305,-0.447 0.334,-0.43C0.362,-0.413 0.376,-0.388 0.377,-0.357C0.378,-0.339 0.376,-0.325 0.369,-0.315C0.362,-0.304 0.354,-0.299 0.345,-0.299C0.34,-0.299 0.335,-0.301 0.332,-0.305C0.328,-0.309 0.326,-0.314 0.326,-0.321C0.326,-0.332 0.33,-0.343 0.337,-0.356C0.334,-0.372 0.323,-0.384 0.305,-0.392C0.286,-0.4 0.264,-0.404 0.239,-0.404C0.202,-0.404 0.172,-0.397 0.15,-0.384C0.128,-0.37 0.117,-0.354 0.117,-0.335C0.117,-0.315 0.125,-0.3 0.141,-0.289C0.157,-0.278 0.177,-0.271 0.2,-0.267C0.223,-0.262 0.255,-0.258 0.298,-0.254C0.333,-0.249 0.362,-0.244 0.385,-0.237C0.407,-0.23 0.426,-0.218 0.441,-0.199C0.456,-0.18 0.464,-0.152 0.464,-0.117C0.464,-0.08 0.447,-0.051 0.413,-0.031C0.379,-0.01 0.338,0.001 0.291,0.001C0.23,0.001 0.176,-0.009 0.129,-0.03C0.081,-0.051 0.053,-0.08 0.045,-0.118Z" style="fill-rule:nonzero;stroke:black;stroke-width:0.05px;"/>
        </g>
        <g transform="matrix(12,0,0,12,432.195,514.823)">
            <path d="M0.297,-0C0.228,-0 0.168,-0.012 0.117,-0.037C0.066,-0.061 0.04,-0.104 0.04,-0.165C0.04,-0.187 0.047,-0.208 0.06,-0.229C0.073,-0.25 0.093,-0.267 0.119,-0.28C0.145,-0.293 0.177,-0.299 0.214,-0.299C0.243,-0.299 0.267,-0.298 0.287,-0.295C0.307,-0.292 0.33,-0.285 0.356,-0.273C0.382,-0.261 0.409,-0.242 0.437,-0.216C0.426,-0.262 0.41,-0.302 0.389,-0.337C0.368,-0.372 0.344,-0.399 0.318,-0.418C0.291,-0.436 0.265,-0.446 0.24,-0.446C0.228,-0.446 0.217,-0.444 0.207,-0.44C0.196,-0.435 0.184,-0.429 0.169,-0.421C0.152,-0.41 0.14,-0.405 0.132,-0.405C0.129,-0.405 0.126,-0.406 0.124,-0.409C0.121,-0.411 0.12,-0.414 0.12,-0.417C0.12,-0.444 0.132,-0.464 0.156,-0.479C0.179,-0.494 0.208,-0.5 0.242,-0.499C0.289,-0.496 0.331,-0.476 0.37,-0.44C0.409,-0.403 0.439,-0.357 0.462,-0.302C0.484,-0.247 0.495,-0.194 0.495,-0.141C0.495,-0.132 0.494,-0.12 0.493,-0.104L0.461,-0.106C0.436,-0.157 0.403,-0.194 0.364,-0.216C0.324,-0.237 0.284,-0.248 0.244,-0.248C0.193,-0.248 0.156,-0.24 0.134,-0.225C0.112,-0.21 0.101,-0.187 0.101,-0.158C0.101,-0.127 0.116,-0.103 0.147,-0.084C0.178,-0.065 0.217,-0.056 0.265,-0.056C0.292,-0.056 0.313,-0.057 0.329,-0.061C0.345,-0.064 0.362,-0.068 0.379,-0.073C0.393,-0.078 0.405,-0.081 0.416,-0.083C0.427,-0.085 0.44,-0.086 0.457,-0.086C0.476,-0.086 0.488,-0.085 0.493,-0.082C0.498,-0.079 0.5,-0.073 0.5,-0.064C0.5,-0.057 0.486,-0.049 0.459,-0.039C0.432,-0.029 0.401,-0.02 0.367,-0.012C0.333,-0.004 0.31,-0 0.297,-0Z" style="fill-rule:nonzero;stroke:black;stroke-width:0.05px;"/>
        </g>
        <g transform="matrix(12,0,0,12,438.675,514.823)">
            <path d="M0.095,-0.007C0.08,-0.08 0.069,-0.166 0.062,-0.266C0.054,-0.365 0.05,-0.462 0.05,-0.555C0.05,-0.602 0.051,-0.643 0.053,-0.679C0.053,-0.688 0.06,-0.692 0.073,-0.692C0.084,-0.692 0.09,-0.689 0.094,-0.684C0.096,-0.679 0.098,-0.67 0.098,-0.659C0.098,-0.551 0.1,-0.459 0.104,-0.383C0.108,-0.306 0.113,-0.224 0.12,-0.136C0.124,-0.079 0.127,-0.041 0.128,-0.021C0.129,-0.01 0.123,-0.005 0.111,-0.005C0.107,-0.005 0.102,-0.006 0.095,-0.007Z" style="fill-rule:nonzero;stroke:black;stroke-width:0.05px;"/>
        </g>
        <g transform="matrix(12,0,0,12,440.691,514.823)">
            <path d="M0.484,-0.005C0.447,-0.005 0.417,-0.012 0.394,-0.027C0.371,-0.041 0.354,-0.063 0.345,-0.094C0.325,-0.059 0.302,-0.034 0.276,-0.017C0.25,0.001 0.222,0.009 0.192,0.009C0.14,0.009 0.1,-0.01 0.072,-0.047C0.044,-0.084 0.03,-0.145 0.03,-0.228C0.03,-0.267 0.034,-0.301 0.043,-0.328C0.051,-0.355 0.065,-0.38 0.085,-0.403C0.094,-0.4 0.1,-0.395 0.103,-0.39C0.105,-0.384 0.106,-0.376 0.106,-0.365C0.106,-0.354 0.105,-0.344 0.103,-0.333C0.1,-0.322 0.099,-0.316 0.098,-0.314C0.093,-0.294 0.09,-0.277 0.088,-0.262C0.085,-0.247 0.084,-0.228 0.084,-0.206C0.084,-0.158 0.093,-0.119 0.112,-0.089C0.13,-0.058 0.156,-0.043 0.191,-0.043C0.23,-0.043 0.261,-0.056 0.284,-0.082C0.306,-0.107 0.317,-0.139 0.317,-0.178L0.31,-0.28C0.31,-0.284 0.313,-0.288 0.319,-0.292C0.324,-0.296 0.331,-0.298 0.338,-0.298C0.347,-0.298 0.354,-0.292 0.357,-0.279C0.36,-0.266 0.363,-0.246 0.366,-0.219C0.37,-0.185 0.375,-0.157 0.38,-0.136C0.385,-0.114 0.394,-0.095 0.409,-0.079C0.424,-0.062 0.445,-0.054 0.473,-0.054C0.507,-0.054 0.532,-0.064 0.547,-0.083C0.562,-0.101 0.57,-0.126 0.57,-0.157C0.57,-0.184 0.565,-0.213 0.555,-0.244C0.544,-0.274 0.532,-0.299 0.517,-0.318C0.516,-0.324 0.52,-0.329 0.527,-0.333C0.534,-0.337 0.541,-0.338 0.548,-0.336C0.56,-0.333 0.571,-0.323 0.582,-0.304C0.592,-0.285 0.6,-0.262 0.607,-0.234C0.613,-0.206 0.616,-0.178 0.616,-0.15C0.616,-0.108 0.606,-0.073 0.585,-0.046C0.564,-0.019 0.53,-0.005 0.484,-0.005Z" style="fill-rule:nonzero;stroke:black;stroke-width:0.05px;"/>
        </g>
        <g transform="matrix(12,0,0,12,448.563,514.823)">
            <path d="M0.297,-0C0.228,-0 0.168,-0.012 0.117,-0.037C0.066,-0.061 0.04,-0.104 0.04,-0.165C0.04,-0.187 0.047,-0.208 0.06,-0.229C0.073,-0.25 0.093,-0.267 0.119,-0.28C0.145,-0.293 0.177,-0.299 0.214,-0.299C0.243,-0.299 0.267,-0.298 0.287,-0.295C0.307,-0.292 0.33,-0.285 0.356,-0.273C0.382,-0.261 0.409,-0.242 0.437,-0.216C0.426,-0.262 0.41,-0.302 0.389,-0.337C0.368,-0.372 0.344,-0.399 0.318,-0.418C0.291,-0.436 0.265,-0.446 0.24,-0.446C0.228,-0.446 0.217,-0.444 0.207,-0.44C0.196,-0.435 0.184,-0.429 0.169,-0.421C0.152,-0.41 0.14,-0.405 0.132,-0.405C0.129,-0.405 0.126,-0.406 0.124,-0.409C0.121,-0.411 0.12,-0.414 0.12,-0.417C0.12,-0.444 0.132,-0.464 0.156,-0.479C0.179,-0.494 0.208,-0.5 0.242,-0.499C0.289,-0.496 0.331,-0.476 0.37,-0.44C0.409,-0.403 0.439,-0.357 0.462,-0.302C0.484,-0.247 0.495,-0.194 0.495,-0.141C0.495,-0.132 0.494,-0.12 0.493,-0.104L0.461,-0.106C0.436,-0.157 0.403,-0.194 0.364,-0.216C0.324,-0.237 0.284,-0.248 0.244,-0.248C0.193,-0.248 0.156,-0.24 0.134,-0.225C0.112,-0.21 0.101,-0.187 0.101,-0.158C0.101,-0.127 0.116,-0.103 0.147,-0.084C0.178,-0.065 0.217,-0.056 0.265,-0.056C0.292,-0.056 0.313,-0.057 0.329,-0.061C0.345,-0.064 0.362,-0.068 0.379,-0.073C0.393,-0.078 0.405,-0.081 0.416,-0.083C0.427,-0.085 0.44,-0.086 0.457,-0.086C0.476,-0.086 0.488,-0.085 0.493,-0.082C0.498,-0.079 0.5,-0.073 0.5,-0.064C0.5,-0.057 0.486,-0.049 0.459,-0.039C0.432,-0.029 0.401,-0.02 0.367,-0.012C0.333,-0.004 0.31,-0 0.297,-0Z" style="fill-rule:nonzero;stroke:black;stroke-width:0.05px;"/>
        </g>
        <g transform="matrix(12,0,0,12,455.043,514.823)">
            <path d="M0.314,0.473C0.269,0.473 0.228,0.463 0.193,0.444C0.157,0.425 0.128,0.402 0.107,0.377C0.086,0.352 0.074,0.331 0.071,0.315C0.068,0.3 0.072,0.289 0.082,0.281C0.091,0.273 0.103,0.27 0.118,0.271C0.139,0.32 0.163,0.358 0.192,0.385C0.221,0.412 0.262,0.426 0.315,0.427C0.352,0.428 0.382,0.404 0.405,0.356C0.427,0.307 0.443,0.248 0.452,0.179C0.461,0.109 0.466,0.04 0.466,-0.027C0.466,-0.062 0.465,-0.09 0.463,-0.112C0.412,-0.05 0.348,-0.019 0.269,-0.019C0.201,-0.019 0.149,-0.051 0.113,-0.116C0.076,-0.181 0.053,-0.254 0.042,-0.335C0.041,-0.343 0.04,-0.354 0.04,-0.369C0.04,-0.411 0.054,-0.432 0.081,-0.432C0.084,-0.432 0.087,-0.415 0.092,-0.382C0.099,-0.329 0.108,-0.282 0.119,-0.24C0.13,-0.198 0.148,-0.16 0.173,-0.126C0.198,-0.091 0.231,-0.074 0.272,-0.074C0.305,-0.074 0.338,-0.085 0.373,-0.107C0.407,-0.128 0.432,-0.152 0.447,-0.179C0.447,-0.23 0.44,-0.275 0.428,-0.316C0.415,-0.356 0.408,-0.377 0.407,-0.38C0.406,-0.395 0.405,-0.404 0.405,-0.408C0.405,-0.421 0.407,-0.431 0.412,-0.437C0.416,-0.443 0.422,-0.446 0.431,-0.446C0.44,-0.446 0.451,-0.427 0.463,-0.389C0.475,-0.351 0.486,-0.301 0.495,-0.24C0.504,-0.179 0.511,-0.115 0.514,-0.048C0.515,-0.013 0.516,0.012 0.516,0.029C0.516,0.157 0.5,0.263 0.469,0.347C0.437,0.431 0.385,0.473 0.314,0.473Z" style="fill-rule:nonzero;stroke:black;stroke-width:0.05px;"/>
        </g>
        <g transform="matrix(12,0,0,12,461.715,514.823)">
            <path d="M0.045,-0.118C0.054,-0.125 0.063,-0.129 0.072,-0.129C0.08,-0.129 0.088,-0.127 0.096,-0.122C0.103,-0.117 0.111,-0.112 0.119,-0.105C0.127,-0.097 0.133,-0.092 0.138,-0.089C0.153,-0.077 0.174,-0.068 0.201,-0.061C0.228,-0.054 0.256,-0.051 0.286,-0.051C0.32,-0.051 0.351,-0.058 0.378,-0.071C0.405,-0.084 0.418,-0.101 0.418,-0.123C0.418,-0.143 0.411,-0.159 0.396,-0.171C0.381,-0.182 0.364,-0.191 0.343,-0.196C0.322,-0.201 0.295,-0.206 0.261,-0.211C0.215,-0.216 0.179,-0.223 0.152,-0.231C0.125,-0.239 0.103,-0.252 0.087,-0.271C0.071,-0.289 0.063,-0.315 0.063,-0.348C0.063,-0.384 0.08,-0.411 0.114,-0.429C0.148,-0.446 0.187,-0.455 0.231,-0.455C0.271,-0.455 0.305,-0.447 0.334,-0.43C0.362,-0.413 0.376,-0.388 0.377,-0.357C0.378,-0.339 0.376,-0.325 0.369,-0.315C0.362,-0.304 0.354,-0.299 0.345,-0.299C0.34,-0.299 0.335,-0.301 0.332,-0.305C0.328,-0.309 0.326,-0.314 0.326,-0.321C0.326,-0.332 0.33,-0.343 0.337,-0.356C0.334,-0.372 0.323,-0.384 0.305,-0.392C0.286,-0.4 0.264,-0.404 0.239,-0.404C0.202,-0.404 0.172,-0.397 0.15,-0.384C0.128,-0.37 0.117,-0.354 0.117,-0.335C0.117,-0.315 0.125,-0.3 0.141,-0.289C0.157,-0.278 0.177,-0.271 0.2,-0.267C0.223,-0.262 0.255,-0.258 0.298,-0.254C0.333,-0.249 0.362,-0.244 0.385,-0.237C0.407,-0.23 0.426,-0.218 0.441,-0.199C0.456,-0.18 0.464,-0.152 0.464,-0.117C0.464,-0.08 0.447,-0.051 0.413,-0.031C0.379,-0.01 0.338,0.001 0.291,0.001C0.23,0.001 0.176,-0.009 0.129,-0.03C0.081,-0.051 0.053,-0.08 0.045,-0.118Z" style="fill-rule:nonzero;stroke:black;stroke-width:0.05px;"/>
        </g>
        <g transform="matrix(12,0,0,12,470.823,514.823)">
            <path d="M0.201,-0C0.194,0.001 0.19,0.002 0.188,0.002C0.167,0.002 0.153,-0.013 0.146,-0.044C0.138,-0.075 0.134,-0.118 0.134,-0.173C0.134,-0.196 0.135,-0.231 0.136,-0.279C0.137,-0.308 0.138,-0.33 0.138,-0.345C0.056,-0.345 0.015,-0.354 0.015,-0.373C0.015,-0.379 0.016,-0.384 0.018,-0.387C0.019,-0.39 0.023,-0.392 0.029,-0.392L0.138,-0.399C0.137,-0.432 0.136,-0.467 0.133,-0.506C0.13,-0.541 0.129,-0.573 0.128,-0.602C0.128,-0.609 0.131,-0.615 0.137,-0.618C0.143,-0.62 0.149,-0.622 0.156,-0.622C0.164,-0.622 0.171,-0.618 0.176,-0.61C0.181,-0.601 0.184,-0.593 0.184,-0.584L0.191,-0.401L0.274,-0.397C0.287,-0.398 0.298,-0.396 0.307,-0.39C0.316,-0.384 0.32,-0.374 0.321,-0.36C0.307,-0.354 0.292,-0.35 0.275,-0.349C0.258,-0.348 0.23,-0.347 0.191,-0.347C0.191,-0.285 0.194,-0.183 0.2,-0.041C0.2,-0.026 0.2,-0.016 0.201,-0.011C0.201,-0.005 0.201,-0.001 0.201,-0Z" style="fill-rule:nonzero;stroke:black;stroke-width:0.05px;"/>
        </g>
        <g transform="matrix(12,0,0,12,474.855,514.823)">
            <path d="M0.15,-0.002C0.147,-0.001 0.143,-0.014 0.14,-0.04C0.136,-0.066 0.131,-0.111 0.125,-0.174C0.116,-0.278 0.105,-0.373 0.094,-0.46C0.082,-0.547 0.067,-0.622 0.05,-0.685C0.049,-0.69 0.051,-0.695 0.056,-0.699C0.061,-0.703 0.069,-0.705 0.078,-0.705C0.083,-0.705 0.086,-0.705 0.089,-0.704C0.106,-0.659 0.118,-0.619 0.125,-0.584C0.132,-0.549 0.138,-0.507 0.144,-0.456L0.149,-0.417C0.189,-0.441 0.226,-0.453 0.259,-0.453C0.32,-0.453 0.363,-0.426 0.389,-0.371C0.414,-0.316 0.427,-0.237 0.427,-0.136C0.427,-0.097 0.425,-0.065 0.42,-0.039C0.415,-0.012 0.41,0.001 0.403,0.001C0.394,0.001 0.385,-0.005 0.374,-0.018L0.374,-0.051L0.375,-0.16C0.375,-0.181 0.374,-0.206 0.373,-0.237C0.371,-0.289 0.361,-0.328 0.342,-0.355C0.323,-0.382 0.29,-0.395 0.244,-0.395C0.213,-0.395 0.185,-0.384 0.158,-0.361C0.158,-0.336 0.159,-0.31 0.162,-0.283C0.164,-0.256 0.167,-0.23 0.17,-0.205C0.175,-0.17 0.178,-0.138 0.181,-0.112C0.183,-0.085 0.184,-0.055 0.184,-0.022C0.18,-0.014 0.175,-0.009 0.171,-0.006C0.166,-0.003 0.159,-0.002 0.15,-0.002Z" style="fill-rule:nonzero;stroke:black;stroke-width:0.05px;"/>
        </g>
        <g transform="matrix(12,0,0,12,480.555,514.823)">
            <path d="M0.276,-0C0.233,-0 0.194,-0.008 0.158,-0.025C0.122,-0.042 0.093,-0.065 0.072,-0.096C0.051,-0.127 0.04,-0.162 0.04,-0.202C0.04,-0.247 0.048,-0.289 0.065,-0.328C0.082,-0.367 0.106,-0.398 0.139,-0.422C0.171,-0.445 0.209,-0.457 0.252,-0.457C0.297,-0.457 0.332,-0.443 0.355,-0.414C0.378,-0.385 0.389,-0.348 0.388,-0.304C0.388,-0.265 0.373,-0.235 0.342,-0.214C0.311,-0.193 0.271,-0.183 0.223,-0.183C0.216,-0.183 0.205,-0.184 0.19,-0.185C0.166,-0.188 0.149,-0.191 0.139,-0.196C0.129,-0.201 0.124,-0.21 0.124,-0.224C0.124,-0.229 0.125,-0.232 0.128,-0.235C0.131,-0.237 0.136,-0.238 0.144,-0.238C0.153,-0.238 0.168,-0.236 0.19,-0.232C0.211,-0.228 0.23,-0.226 0.247,-0.226C0.308,-0.226 0.339,-0.253 0.339,-0.306C0.339,-0.338 0.333,-0.363 0.322,-0.382C0.31,-0.401 0.289,-0.41 0.26,-0.41C0.228,-0.41 0.199,-0.402 0.174,-0.385C0.149,-0.368 0.129,-0.345 0.116,-0.318C0.102,-0.291 0.095,-0.262 0.095,-0.231C0.095,-0.178 0.11,-0.135 0.139,-0.102C0.168,-0.068 0.214,-0.051 0.275,-0.051C0.282,-0.051 0.295,-0.052 0.312,-0.053C0.319,-0.054 0.328,-0.056 0.339,-0.059C0.35,-0.062 0.357,-0.065 0.362,-0.066C0.391,-0.076 0.412,-0.081 0.425,-0.081C0.435,-0.081 0.443,-0.078 0.448,-0.073C0.431,-0.048 0.407,-0.029 0.374,-0.018C0.341,-0.006 0.308,-0 0.276,-0Z" style="fill-rule:nonzero;stroke:black;stroke-width:0.05px;"/>
        </g>
        <g transform="matrix(12,0,0,12,488.931,514.823)">
            <path d="M0.689,0.001C0.679,0.001 0.673,-0.002 0.671,-0.008C0.669,-0.013 0.668,-0.022 0.668,-0.034C0.669,-0.039 0.669,-0.044 0.669,-0.051C0.669,-0.057 0.669,-0.062 0.67,-0.065C0.674,-0.097 0.676,-0.127 0.676,-0.156C0.676,-0.219 0.665,-0.269 0.644,-0.305C0.623,-0.34 0.589,-0.358 0.543,-0.358C0.518,-0.358 0.493,-0.352 0.468,-0.339C0.443,-0.326 0.422,-0.311 0.407,-0.292C0.391,-0.273 0.383,-0.256 0.383,-0.241C0.386,-0.222 0.392,-0.198 0.401,-0.17C0.402,-0.167 0.405,-0.156 0.41,-0.139C0.415,-0.122 0.417,-0.106 0.417,-0.092L0.418,-0.073C0.418,-0.062 0.413,-0.057 0.402,-0.057C0.389,-0.057 0.378,-0.066 0.37,-0.083C0.361,-0.1 0.352,-0.127 0.342,-0.164C0.332,-0.2 0.322,-0.23 0.313,-0.253C0.304,-0.276 0.291,-0.296 0.275,-0.313C0.259,-0.33 0.239,-0.338 0.214,-0.338C0.18,-0.338 0.154,-0.326 0.135,-0.303C0.116,-0.28 0.106,-0.251 0.106,-0.217C0.106,-0.194 0.108,-0.164 0.112,-0.127C0.115,-0.099 0.117,-0.075 0.117,-0.055C0.117,-0.043 0.116,-0.034 0.113,-0.028C0.11,-0.022 0.104,-0.019 0.094,-0.019C0.081,-0.019 0.071,-0.024 0.066,-0.033C0.061,-0.042 0.058,-0.055 0.058,-0.074C0.058,-0.111 0.056,-0.155 0.052,-0.207C0.051,-0.214 0.05,-0.231 0.048,-0.259C0.046,-0.286 0.046,-0.314 0.047,-0.342L0.048,-0.375C0.052,-0.379 0.057,-0.381 0.062,-0.381C0.069,-0.381 0.076,-0.377 0.081,-0.368C0.086,-0.359 0.088,-0.345 0.088,-0.327C0.098,-0.344 0.113,-0.36 0.132,-0.374C0.151,-0.388 0.172,-0.395 0.193,-0.395C0.23,-0.395 0.26,-0.388 0.285,-0.373C0.309,-0.358 0.331,-0.333 0.351,-0.3C0.37,-0.334 0.398,-0.363 0.436,-0.387C0.473,-0.411 0.512,-0.423 0.552,-0.423C0.593,-0.423 0.628,-0.407 0.656,-0.376C0.683,-0.345 0.704,-0.307 0.717,-0.263C0.729,-0.219 0.736,-0.178 0.736,-0.141C0.736,-0.108 0.733,-0.076 0.728,-0.045C0.722,-0.014 0.709,0.001 0.689,0.001Z" style="fill-rule:nonzero;stroke:black;stroke-width:0.05px;"/>
        </g>
        <g transform="matrix(12,0,0,12,498.243,514.823)">
            <path d="M0.297,-0C0.228,-0 0.168,-0.012 0.117,-0.037C0.066,-0.061 0.04,-0.104 0.04,-0.165C0.04,-0.187 0.047,-0.208 0.06,-0.229C0.073,-0.25 0.093,-0.267 0.119,-0.28C0.145,-0.293 0.177,-0.299 0.214,-0.299C0.243,-0.299 0.267,-0.298 0.287,-0.295C0.307,-0.292 0.33,-0.285 0.356,-0.273C0.382,-0.261 0.409,-0.242 0.437,-0.216C0.426,-0.262 0.41,-0.302 0.389,-0.337C0.368,-0.372 0.344,-0.399 0.318,-0.418C0.291,-0.436 0.265,-0.446 0.24,-0.446C0.228,-0.446 0.217,-0.444 0.207,-0.44C0.196,-0.435 0.184,-0.429 0.169,-0.421C0.152,-0.41 0.14,-0.405 0.132,-0.405C0.129,-0.405 0.126,-0.406 0.124,-0.409C0.121,-0.411 0.12,-0.414 0.12,-0.417C0.12,-0.444 0.132,-0.464 0.156,-0.479C0.179,-0.494 0.208,-0.5 0.242,-0.499C0.289,-0.496 0.331,-0.476 0.37,-0.44C0.409,-0.403 0.439,-0.357 0.462,-0.302C0.484,-0.247 0.495,-0.194 0.495,-0.141C0.495,-0.132 0.494,-0.12 0.493,-0.104L0.461,-0.106C0.436,-0.157 0.403,-0.194 0.364,-0.216C0.324,-0.237 0.284,-0.248 0.244,-0.248C0.193,-0.248 0.156,-0.24 0.134,-0.225C0.112,-0.21 0.101,-0.187 0.101,-0.158C0.101,-0.127 0.116,-0.103 0.147,-0.084C0.178,-0.065 0.217,-0.056 0.265,-0.056C0.292,-0.056 0.313,-0.057 0.329,-0.061C0.345,-0.064 0.362,-0.068 0.379,-0.073C0.393,-0.078 0.405,-0.081 0.416,-0.083C0.427,-0.085 0.44,-0.086 0.457,-0.086C0.476,-0.086 0.488,-0.085 0.493,-0.082C0.498,-0.079 0.5,-0.073 0.5,-0.064C0.5,-0.057 0.486,-0.049 0.459,-0.039C0.432,-0.029 0.401,-0.02 0.367,-0.012C0.333,-0.004 0.31,-0 0.297,-0Z" style="fill-rule:nonzero;stroke:black;stroke-width:0.05px;"/>
        </g>
        <g transform="matrix(12,0,0,12,504.723,514.823)">
            <path d="M0.107,0.001C0.092,0.001 0.079,-0.022 0.07,-0.067C0.061,-0.112 0.055,-0.15 0.052,-0.183C0.049,-0.216 0.046,-0.267 0.041,-0.338C0.04,-0.349 0.04,-0.364 0.04,-0.382C0.04,-0.405 0.042,-0.42 0.046,-0.429C0.049,-0.438 0.055,-0.442 0.064,-0.442C0.071,-0.442 0.077,-0.44 0.082,-0.438C0.086,-0.435 0.09,-0.43 0.093,-0.423L0.092,-0.383C0.092,-0.34 0.094,-0.3 0.099,-0.262C0.103,-0.224 0.11,-0.173 0.119,-0.109C0.124,-0.081 0.128,-0.058 0.13,-0.04C0.131,-0.031 0.13,-0.022 0.125,-0.013C0.12,-0.004 0.114,0.001 0.107,0.001ZM0.082,-0.549C0.067,-0.549 0.056,-0.555 0.05,-0.566C0.043,-0.577 0.039,-0.591 0.039,-0.608C0.039,-0.615 0.039,-0.621 0.04,-0.624C0.039,-0.635 0.045,-0.64 0.058,-0.64C0.067,-0.64 0.077,-0.638 0.087,-0.634C0.096,-0.629 0.099,-0.626 0.095,-0.624C0.102,-0.607 0.105,-0.593 0.105,-0.583C0.105,-0.574 0.103,-0.568 0.099,-0.563C0.095,-0.558 0.089,-0.553 0.082,-0.549Z" style="fill-rule:nonzero;stroke:black;stroke-width:0.05px;"/>
        </g>
        <g transform="matrix(12,0,0,12,506.883,514.823)">
            <path d="M0.135,0.004C0.126,0.007 0.12,0.008 0.119,0.008C0.114,0.008 0.108,0.005 0.102,-0C0.08,-0.033 0.064,-0.09 0.055,-0.171C0.045,-0.252 0.04,-0.322 0.04,-0.381C0.04,-0.39 0.047,-0.395 0.06,-0.395C0.08,-0.395 0.09,-0.384 0.09,-0.362C0.09,-0.356 0.09,-0.351 0.089,-0.347C0.095,-0.361 0.106,-0.375 0.123,-0.39C0.14,-0.405 0.159,-0.417 0.181,-0.427C0.203,-0.437 0.225,-0.442 0.248,-0.442C0.319,-0.442 0.371,-0.411 0.404,-0.348C0.437,-0.285 0.453,-0.206 0.453,-0.113C0.453,-0.081 0.45,-0.056 0.443,-0.037C0.436,-0.017 0.427,-0.008 0.416,-0.008C0.404,-0.008 0.398,-0.012 0.398,-0.019C0.403,-0.054 0.405,-0.089 0.405,-0.123C0.405,-0.209 0.39,-0.274 0.36,-0.319C0.33,-0.363 0.29,-0.385 0.241,-0.385C0.217,-0.385 0.194,-0.379 0.172,-0.367C0.149,-0.355 0.131,-0.338 0.118,-0.317C0.104,-0.296 0.097,-0.271 0.097,-0.244C0.097,-0.213 0.099,-0.187 0.102,-0.164C0.105,-0.141 0.111,-0.114 0.118,-0.082C0.126,-0.051 0.132,-0.022 0.135,0.004Z" style="fill-rule:nonzero;stroke:black;stroke-width:0.05px;"/>
        </g>
        <g transform="matrix(12,0,0,12,515.799,514.823)">
            <path d="M0.208,0.488C0.152,0.488 0.105,0.472 0.068,0.441C0.03,0.409 0.007,0.356 0,0.281C-0.001,0.27 0.001,0.261 0.006,0.255C0.01,0.249 0.016,0.246 0.023,0.246C0.031,0.246 0.038,0.249 0.044,0.256C0.05,0.262 0.053,0.27 0.052,0.281C0.052,0.325 0.067,0.36 0.098,0.386C0.128,0.411 0.167,0.424 0.214,0.424C0.241,0.424 0.266,0.414 0.287,0.394C0.308,0.374 0.324,0.346 0.335,0.311C0.346,0.275 0.352,0.234 0.352,0.188C0.352,0.107 0.353,0.029 0.355,-0.047L0.356,-0.098C0.33,-0.071 0.307,-0.051 0.286,-0.038C0.265,-0.025 0.239,-0.019 0.21,-0.019C0.159,-0.019 0.121,-0.033 0.097,-0.061C0.072,-0.088 0.06,-0.131 0.06,-0.188C0.06,-0.221 0.069,-0.255 0.087,-0.291C0.104,-0.326 0.129,-0.356 0.16,-0.38C0.191,-0.404 0.226,-0.416 0.265,-0.416C0.278,-0.416 0.291,-0.415 0.302,-0.412C0.345,-0.403 0.373,-0.363 0.388,-0.293C0.403,-0.223 0.41,-0.132 0.41,-0.021C0.41,0.01 0.409,0.05 0.408,0.101L0.407,0.196C0.407,0.234 0.401,0.276 0.389,0.321C0.377,0.366 0.356,0.405 0.326,0.438C0.296,0.471 0.257,0.488 0.208,0.488ZM0.195,-0.085C0.244,-0.085 0.282,-0.097 0.307,-0.121C0.332,-0.144 0.345,-0.179 0.345,-0.225C0.345,-0.231 0.344,-0.241 0.343,-0.256C0.34,-0.287 0.332,-0.311 0.32,-0.329C0.307,-0.346 0.288,-0.355 0.262,-0.355C0.235,-0.355 0.21,-0.345 0.187,-0.326C0.164,-0.307 0.147,-0.283 0.134,-0.255C0.121,-0.226 0.115,-0.2 0.115,-0.175C0.115,-0.15 0.122,-0.129 0.137,-0.112C0.152,-0.094 0.171,-0.085 0.195,-0.085Z" style="fill-rule:nonzero;stroke:black;stroke-width:0.05px;"/>
        </g>
        <g transform="matrix(12,0,0,12,521.199,514.823)">
            <path d="M0.247,0.001C0.208,0.001 0.172,-0.008 0.141,-0.026C0.109,-0.043 0.084,-0.068 0.067,-0.1C0.049,-0.131 0.04,-0.167 0.04,-0.208C0.04,-0.275 0.065,-0.324 0.114,-0.357C0.163,-0.39 0.223,-0.406 0.294,-0.406C0.327,-0.406 0.357,-0.398 0.386,-0.382C0.414,-0.366 0.437,-0.343 0.454,-0.313C0.471,-0.283 0.48,-0.248 0.48,-0.209C0.48,-0.166 0.469,-0.129 0.447,-0.098C0.425,-0.066 0.396,-0.042 0.361,-0.025C0.325,-0.008 0.287,0.001 0.247,0.001ZM0.236,-0.056C0.298,-0.056 0.345,-0.07 0.377,-0.098C0.409,-0.126 0.425,-0.167 0.425,-0.221C0.425,-0.258 0.413,-0.289 0.388,-0.316C0.363,-0.343 0.328,-0.356 0.283,-0.356C0.253,-0.356 0.223,-0.35 0.192,-0.339C0.161,-0.328 0.136,-0.311 0.116,-0.288C0.096,-0.265 0.086,-0.238 0.086,-0.206C0.086,-0.179 0.093,-0.155 0.106,-0.132C0.119,-0.109 0.137,-0.09 0.161,-0.077C0.184,-0.063 0.209,-0.056 0.236,-0.056Z" style="fill-rule:nonzero;stroke:black;stroke-width:0.05px;"/>
        </g>
        <g transform="matrix(12,0,0,12,527.439,514.823)">
            <path d="M0.297,-0C0.228,-0 0.168,-0.012 0.117,-0.037C0.066,-0.061 0.04,-0.104 0.04,-0.165C0.04,-0.187 0.047,-0.208 0.06,-0.229C0.073,-0.25 0.093,-0.267 0.119,-0.28C0.145,-0.293 0.177,-0.299 0.214,-0.299C0.243,-0.299 0.267,-0.298 0.287,-0.295C0.307,-0.292 0.33,-0.285 0.356,-0.273C0.382,-0.261 0.409,-0.242 0.437,-0.216C0.426,-0.262 0.41,-0.302 0.389,-0.337C0.368,-0.372 0.344,-0.399 0.318,-0.418C0.291,-0.436 0.265,-0.446 0.24,-0.446C0.228,-0.446 0.217,-0.444 0.207,-0.44C0.196,-0.435 0.184,-0.429 0.169,-0.421C0.152,-0.41 0.14,-0.405 0.132,-0.405C0.129,-0.405 0.126,-0.406 0.124,-0.409C0.121,-0.411 0.12,-0.414 0.12,-0.417C0.12,-0.444 0.132,-0.464 0.156,-0.479C0.179,-0.494 0.208,-0.5 0.242,-0.499C0.289,-0.496 0.331,-0.476 0.37,-0.44C0.409,-0.403 0.439,-0.357 0.462,-0.302C0.484,-0.247 0.495,-0.194 0.495,-0.141C0.495,-0.132 0.494,-0.12 0.493,-0.104L0.461,-0.106C0.436,-0.157 0.403,-0.194 0.364,-0.216C0.324,-0.237 0.284,-0.248 0.244,-0.248C0.193,-0.248 0.156,-0.24 0.134,-0.225C0.112,-0.21 0.101,-0.187 0.101,-0.158C0.101,-0.127 0.116,-0.103 0.147,-0.084C0.178,-0.065 0.217,-0.056 0.265,-0.056C0.292,-0.056 0.313,-0.057 0.329,-0.061C0.345,-0.064 0.362,-0.068 0.379,-0.073C0.393,-0.078 0.405,-0.081 0.416,-0.083C0.427,-0.085 0.44,-0.086 0.457,-0.086C0.476,-0.086 0.488,-0.085 0.493,-0.082C0.498,-0.079 0.5,-0.073 0.5,-0.064C0.5,-0.057 0.486,-0.049 0.459,-0.039C0.432,-0.029 0.401,-0.02 0.367,-0.012C0.333,-0.004 0.31,-0 0.297,-0Z" style="fill-rule:nonzero;stroke:black;stroke-width:0.05px;"/>
        </g>
        <g transform="matrix(12,0,0,12,533.919,514.823)">
            <path d="M0.095,-0.007C0.08,-0.08 0.069,-0.166 0.062,-0.266C0.054,-0.365 0.05,-0.462 0.05,-0.555C0.05,-0.602 0.051,-0.643 0.053,-0.679C0.053,-0.688 0.06,-0.692 0.073,-0.692C0.084,-0.692 0.09,-0.689 0.094,-0.684C0.096,-0.679 0.098,-0.67 0.098,-0.659C0.098,-0.551 0.1,-0.459 0.104,-0.383C0.108,-0.306 0.113,-0.224 0.12,-0.136C0.124,-0.079 0.127,-0.041 0.128,-0.021C0.129,-0.01 0.123,-0.005 0.111,-0.005C0.107,-0.005 0.102,-0.006 0.095,-0.007Z" style="fill-rule:nonzero;stroke:black;stroke-width:0.05px;"/>
        </g>
    </g>
</svg>
