<?xml version="1.0" encoding="UTF-8" standalone="no"?>
<!DOCTYPE svg PUBLIC "-//W3C//DTD SVG 1.1//EN" "http://www.w3.org/Graphics/SVG/1.1/DTD/svg11.dtd">
<svg width="100%" height="100%" viewBox="0 0 85 131" version="1.1" xmlns="http://www.w3.org/2000/svg" xmlns:xlink="http://www.w3.org/1999/xlink" xml:space="preserve" xmlns:serif="http://www.serif.com/" style="fill-rule:evenodd;clip-rule:evenodd;">
    <g transform="matrix(1,0,0,1,-418.593,2.43058)">
        <path d="M480.027,2.723C513.811,67.742 496.655,101.478 437.234,116.939M478.189,2.832C516.072,69.259 500.603,104.811 433.009,117.661" style="fill:none;fill-rule:nonzero;stroke:black;stroke-width:2.5px;"/>
    </g>
    <g transform="matrix(1,0,0,1,-431.073,1.79767)">
        <path d="M434.729,122.954C441.522,119.565 442.781,113.834 445.821,114.573C448.47,117.676 446.871,123.278 448.862,124.377C440.643,122.734 442.186,119.044 434.713,118.355" style="fill-rule:nonzero;"/>
    </g>
    <g transform="matrix(1,0,0,1,-431.073,1.79767)">
        <path d="M435.196,120.961C437.186,117.912 442.549,114.066 444.647,112.501M435.803,120.963C439.143,117.262 442.659,114.452 444.905,111.963M446.531,111.68C445.251,114.262 445.968,117.369 445.955,124.983M444.422,112.514C444.924,115.819 446.697,118.118 446.976,123.648M445.24,122.396C444.092,122.719 443.149,120.964 435.569,120.668M447.096,124.438C444.341,122.204 439.592,121.332 435.258,119.055" style="fill:none;fill-rule:nonzero;stroke:black;stroke-width:2px;"/>
    </g>
</svg>
