<?xml version="1.0" encoding="UTF-8" standalone="no"?>
<!DOCTYPE svg PUBLIC "-//W3C//DTD SVG 1.1//EN" "http://www.w3.org/Graphics/SVG/1.1/DTD/svg11.dtd">
<svg width="100%" height="100%" viewBox="0 0 251 163" version="1.1" xmlns="http://www.w3.org/2000/svg" xmlns:xlink="http://www.w3.org/1999/xlink" xml:space="preserve" xmlns:serif="http://www.serif.com/" style="fill-rule:evenodd;clip-rule:evenodd;">
    <path d="M126.377,36.544c33.784,65.018 16.628,98.755 -42.793,114.215m40.955,-114.107c37.883,66.427 22.414,101.979 -45.18,114.829" style="fill:none;fill-rule:nonzero;stroke:black;stroke-width:2.5px;"/>
    <path d="M68.599,156.142c6.792,-3.389 8.051,-9.12 11.092,-8.381c2.649,3.103 1.049,8.705 3.04,9.803c-8.218,-1.643 -6.676,-5.333 -14.148,-6.021" style="fill-rule:nonzero;"/>
    <path d="M69.066,154.149c1.989,-3.049 7.353,-6.896 9.451,-8.461m-8.845,8.462c3.341,-3.7 6.857,-6.511 9.103,-8.999m1.625,-0.284c-1.279,2.582 -0.562,5.689 -0.575,13.304m-1.534,-12.47c0.502,3.305 2.276,5.604 2.554,11.135m-1.735,-1.253c-1.149,0.323 -2.091,-1.432 -9.671,-1.727m11.527,3.769c-2.755,-2.233 -7.505,-3.105 -11.838,-5.383" style="fill:none;fill-rule:nonzero;stroke:black;stroke-width:2px;"/>
    <g transform="matrix(1.52861,0,0,1.52861,-604.146,-754.748)">
        <g transform="matrix(12,0,0,12,394.953,502.823)">
            <path d="M0.504,-0c-0.017,0.003 -0.028,-0.005 -0.035,-0.025c-0.007,-0.019 -0.01,-0.048 -0.011,-0.087c-0.001,-0.057 -0.003,-0.104 -0.005,-0.142c-0.003,-0.039 -0.007,-0.073 -0.013,-0.104c-0.062,0.029 -0.123,0.056 -0.183,0.08c-0.061,0.025 -0.091,0.037 -0.091,0.036l0.002,0.213c0,0.01 -0.006,0.016 -0.018,0.019c-0.016,0.003 -0.026,-0.006 -0.031,-0.028c-0.005,-0.021 -0.009,-0.055 -0.011,-0.102c-0.001,-0.042 -0.003,-0.072 -0.006,-0.089c-0.019,0.009 -0.035,0.014 -0.048,0.013c-0.003,-0.005 -0.004,-0.016 -0.004,-0.033c0.005,-0.002 0.012,-0.004 0.02,-0.007c0.007,-0.003 0.013,-0.006 0.017,-0.01c0.003,-0.003 0.005,-0.009 0.005,-0.016c0,-0.033 -0.003,-0.085 -0.01,-0.154c-0.007,-0.063 -0.011,-0.114 -0.011,-0.155l0.001,-0.046c0.002,-0.005 0.005,-0.008 0.008,-0.009c0.003,-0.001 0.007,-0.002 0.012,-0.002c0.011,0 0.017,0.004 0.017,0.011l0.041,0.352c0.019,-0.005 0.05,-0.017 0.093,-0.036c0.043,-0.019 0.11,-0.051 0.2,-0.094l0.004,-0.222c0,-0.026 0.01,-0.039 0.029,-0.039c0.008,0 0.013,0.003 0.016,0.009c0.003,0.006 0.004,0.016 0.003,0.03l-0.001,0.173c-0,0.059 0.003,0.135 0.01,0.229c0.002,0.019 0.004,0.036 0.006,0.053c0.001,0.017 0.003,0.034 0.004,0.049c0.004,0.041 0.007,0.067 0.008,0.078c0.002,0.011 0.005,0.021 0.009,0.03c-0.003,0.013 -0.012,0.022 -0.027,0.025Z" style="fill-rule:nonzero;stroke:black;stroke-width:0.05px;stroke-linejoin:round;stroke-miterlimit:2;"/>
        </g>
        <g transform="matrix(12,0,0,12,401.925,502.823)">
            <path d="M0.297,-0c-0.069,-0 -0.129,-0.012 -0.181,-0.037c-0.05,-0.024 -0.076,-0.067 -0.076,-0.128c0,-0.022 0.007,-0.043 0.02,-0.064c0.013,-0.021 0.033,-0.038 0.059,-0.051c0.026,-0.012 0.058,-0.019 0.095,-0.019c0.029,0 0.053,0.001 0.073,0.004c0.02,0.003 0.043,0.01 0.069,0.022c0.026,0.012 0.053,0.031 0.081,0.057c-0.011,-0.046 -0.027,-0.086 -0.048,-0.121c-0.021,-0.035 -0.045,-0.062 -0.072,-0.08c-0.026,-0.019 -0.052,-0.029 -0.077,-0.029c-0.012,0 -0.023,0.002 -0.033,0.007c-0.011,0.004 -0.023,0.01 -0.038,0.018c-0.017,0.011 -0.029,0.016 -0.037,0.016c-0.003,0 -0.006,-0.001 -0.008,-0.004c-0.003,-0.002 -0.004,-0.005 -0.004,-0.008c0,-0.027 0.012,-0.047 0.036,-0.062c0.023,-0.015 0.052,-0.021 0.086,-0.02c0.047,0.003 0.089,0.023 0.128,0.06c0.039,0.037 0.069,0.082 0.092,0.137c0.022,0.055 0.033,0.108 0.033,0.161c-0,0.009 -0.001,0.021 -0.002,0.037l-0.032,-0.002c-0.025,-0.051 -0.058,-0.088 -0.097,-0.109c-0.04,-0.022 -0.08,-0.033 -0.12,-0.033c-0.051,0 -0.088,0.008 -0.11,0.023c-0.022,0.015 -0.033,0.038 -0.033,0.067c0,0.031 0.015,0.055 0.046,0.074c0.031,0.019 0.07,0.028 0.118,0.028c0.027,0 0.048,-0.001 0.064,-0.004c0.016,-0.003 0.033,-0.008 0.05,-0.013c0.014,-0.005 0.026,-0.008 0.037,-0.01c0.011,-0.002 0.024,-0.003 0.041,-0.003c0.019,0 0.031,0.001 0.036,0.004c0.005,0.003 0.007,0.009 0.007,0.018c0,0.007 -0.014,0.015 -0.041,0.025c-0.027,0.01 -0.058,0.019 -0.092,0.027c-0.034,0.008 -0.057,0.012 -0.07,0.012Z" style="fill-rule:nonzero;stroke:black;stroke-width:0.05px;stroke-linejoin:round;stroke-miterlimit:2;"/>
        </g>
        <g transform="matrix(12,0,0,12,408.405,502.823)">
            <path d="M0.212,0.001c-0.019,0 -0.045,-0.029 -0.075,-0.087c-0.032,-0.057 -0.067,-0.13 -0.108,-0.219l-0.029,-0.062c-0,-0.007 0.004,-0.013 0.012,-0.02c0.008,-0.006 0.02,-0.009 0.036,-0.008c0.004,0.007 0.017,0.034 0.038,0.081c0.025,0.055 0.047,0.1 0.064,0.135c0.018,0.035 0.04,0.072 0.065,0.112c0.011,-0.041 0.024,-0.08 0.038,-0.117c0.015,-0.036 0.036,-0.087 0.065,-0.154l0.015,-0.035c0.004,-0.008 0.012,-0.012 0.023,-0.012c0.008,0 0.015,0.002 0.021,0.006c0.006,0.004 0.009,0.01 0.009,0.017c-0,0.007 -0.003,0.014 -0.01,0.021c-0.005,0.005 -0.011,0.018 -0.02,0.04c-0.009,0.023 -0.018,0.048 -0.027,0.075c-0.025,0.072 -0.047,0.128 -0.066,0.168c-0.019,0.041 -0.036,0.06 -0.051,0.059Z" style="fill-rule:nonzero;stroke:black;stroke-width:0.05px;stroke-linejoin:round;stroke-miterlimit:2;"/>
        </g>
        <g transform="matrix(12,0,0,12,413.037,502.823)">
            <path d="M0.107,0.001c-0.015,0 -0.028,-0.023 -0.037,-0.068c-0.009,-0.045 -0.015,-0.083 -0.018,-0.116c-0.003,-0.033 -0.006,-0.084 -0.011,-0.155c-0.001,-0.011 -0.001,-0.026 -0.001,-0.044c-0,-0.023 0.002,-0.038 0.005,-0.047c0.004,-0.009 0.01,-0.013 0.019,-0.013c0.007,-0 0.013,0.002 0.018,0.004c0.004,0.003 0.008,0.008 0.011,0.015l-0.001,0.04c0,0.043 0.002,0.083 0.007,0.121c0.004,0.038 0.011,0.089 0.02,0.153c0.005,0.028 0.009,0.051 0.011,0.069c0.001,0.009 -0,0.018 -0.005,0.027c-0.005,0.009 -0.011,0.014 -0.018,0.014Zm-0.025,-0.55c-0.015,0 -0.025,-0.006 -0.032,-0.017c-0.007,-0.011 -0.011,-0.025 -0.011,-0.042c0,-0.007 0,-0.013 0.001,-0.016c-0.001,-0.011 0.005,-0.016 0.018,-0.016c0.009,0 0.019,0.002 0.029,0.007c0.009,0.004 0.012,0.007 0.008,0.009c0.007,0.017 0.01,0.031 0.01,0.041c0,0.009 -0.002,0.016 -0.006,0.021c-0.004,0.005 -0.01,0.009 -0.017,0.013Z" style="fill-rule:nonzero;stroke:black;stroke-width:0.05px;stroke-linejoin:round;stroke-miterlimit:2;"/>
        </g>
        <g transform="matrix(12,0,0,12,415.197,502.823)">
            <path d="M0.135,0.004c-0.009,0.003 -0.015,0.004 -0.016,0.004c-0.005,0 -0.011,-0.003 -0.017,-0.008c-0.022,-0.033 -0.038,-0.09 -0.048,-0.171c-0.009,-0.081 -0.014,-0.151 -0.014,-0.21c-0,-0.009 0.007,-0.014 0.02,-0.014c0.02,0 0.03,0.011 0.03,0.033c0,0.006 -0,0.011 -0.001,0.015c0.006,-0.014 0.017,-0.028 0.034,-0.043c0.017,-0.015 0.036,-0.027 0.058,-0.037c0.022,-0.01 0.044,-0.015 0.067,-0.015c0.071,-0 0.123,0.031 0.156,0.094c0.033,0.063 0.049,0.142 0.049,0.235c0,0.032 -0.003,0.057 -0.01,0.076c-0.007,0.019 -0.016,0.029 -0.027,0.029c-0.012,-0 -0.018,-0.004 -0.018,-0.011c0.005,-0.035 0.007,-0.07 0.007,-0.104c0,-0.086 -0.015,-0.151 -0.045,-0.196c-0.03,-0.044 -0.07,-0.066 -0.119,-0.066c-0.024,-0 -0.047,0.006 -0.069,0.018c-0.023,0.012 -0.041,0.029 -0.054,0.05c-0.014,0.021 -0.021,0.046 -0.021,0.073c0,0.031 0.002,0.057 0.005,0.08c0.003,0.023 0.009,0.05 0.016,0.082c0.008,0.031 0.014,0.06 0.017,0.086Z" style="fill-rule:nonzero;stroke:black;stroke-width:0.05px;stroke-linejoin:round;stroke-miterlimit:2;"/>
        </g>
        <g transform="matrix(12,0,0,12,421.113,502.823)">
            <path d="M0.208,0.488c-0.056,0 -0.103,-0.016 -0.141,-0.047c-0.037,-0.032 -0.06,-0.085 -0.067,-0.16c-0.001,-0.011 0.001,-0.02 0.006,-0.026c0.004,-0.006 0.01,-0.009 0.017,-0.009c0.008,0 0.015,0.003 0.021,0.01c0.006,0.006 0.009,0.014 0.008,0.025c0,0.044 0.015,0.079 0.046,0.104c0.03,0.026 0.069,0.039 0.116,0.039c0.027,0 0.051,-0.01 0.073,-0.03c0.021,-0.02 0.037,-0.048 0.048,-0.084c0.011,-0.035 0.017,-0.076 0.017,-0.122c0,-0.081 0.001,-0.159 0.003,-0.235l0.001,-0.051c-0.026,0.027 -0.05,0.047 -0.071,0.06c-0.021,0.013 -0.046,0.019 -0.075,0.019c-0.051,0 -0.089,-0.014 -0.114,-0.041c-0.024,-0.028 -0.036,-0.071 -0.036,-0.128c-0,-0.033 0.009,-0.067 0.026,-0.102c0.018,-0.036 0.042,-0.066 0.073,-0.09c0.031,-0.024 0.067,-0.036 0.106,-0.036c0.013,-0 0.026,0.001 0.037,0.004c0.043,0.009 0.071,0.049 0.086,0.119c0.015,0.07 0.022,0.161 0.022,0.272c-0,0.031 -0.001,0.071 -0.002,0.122l-0.001,0.095c0,0.038 -0.006,0.08 -0.018,0.125c-0.012,0.045 -0.033,0.084 -0.063,0.117c-0.03,0.033 -0.069,0.05 -0.118,0.05Zm-0.013,-0.573c0.049,0 0.087,-0.012 0.112,-0.035c0.025,-0.024 0.038,-0.059 0.038,-0.105c0,-0.006 -0.001,-0.016 -0.002,-0.031c-0.003,-0.031 -0.011,-0.055 -0.023,-0.072c-0.013,-0.018 -0.032,-0.027 -0.058,-0.027c-0.027,0 -0.052,0.01 -0.075,0.029c-0.023,0.019 -0.04,0.043 -0.053,0.072c-0.013,0.028 -0.019,0.054 -0.019,0.079c0,0.025 0.007,0.046 0.022,0.064c0.015,0.017 0.034,0.026 0.058,0.026Z" style="fill-rule:nonzero;stroke:black;stroke-width:0.05px;stroke-linejoin:round;stroke-miterlimit:2;"/>
        </g>
        <g transform="matrix(12,0,0,12,429.513,502.823)">
            <path d="M0.286,-0.704c0.03,-0 0.059,0.007 0.086,0.022c0.027,0.015 0.049,0.035 0.066,0.058c0.017,0.023 0.026,0.047 0.026,0.07l-0.022,-0c-0.01,-0 -0.019,-0.003 -0.027,-0.009c-0.007,-0.006 -0.017,-0.016 -0.029,-0.029c-0.017,-0.019 -0.033,-0.033 -0.046,-0.042c-0.014,-0.009 -0.032,-0.014 -0.053,-0.014c-0.037,-0 -0.067,0.017 -0.092,0.05c-0.025,0.034 -0.039,0.074 -0.044,0.119c-0.002,0.021 -0.003,0.041 -0.003,0.062c-0,0.034 0.002,0.065 0.007,0.094c0.009,0.001 0.029,0.003 0.061,0.005c0.032,0.002 0.058,0.004 0.079,0.005c0.007,-0 0.022,0.001 0.043,0.002c0.007,-0 0.011,0.001 0.014,0.004c0.003,0.003 0.005,0.009 0.005,0.016c-0,0.018 -0.02,0.027 -0.061,0.027c-0.035,-0 -0.08,-0.006 -0.133,-0.019c0.007,0.03 0.017,0.057 0.028,0.082c0.011,0.025 0.026,0.055 0.044,0.09c0.013,0.025 0.022,0.044 0.028,0.057c0.006,0.014 0.009,0.026 0.009,0.035c-0,0.007 -0.002,0.012 -0.007,0.015c-0.005,0.003 -0.011,0.005 -0.02,0.005c-0.018,-0 -0.035,-0.019 -0.051,-0.058c-0.015,-0.038 -0.033,-0.091 -0.053,-0.159l-0.018,-0.059c-0.015,0.001 -0.033,0.005 -0.055,0.012c-0.002,0.001 -0.009,0.002 -0.021,0.005c-0.011,0.003 -0.022,0.005 -0.031,0.005c-0.011,-0 -0.016,-0.006 -0.016,-0.019c-0,-0.017 0.009,-0.028 0.026,-0.034c0.017,-0.005 0.034,-0.009 0.049,-0.01c0.015,-0.001 0.025,-0.001 0.029,-0.002c-0.001,-0.025 -0.002,-0.048 -0.002,-0.068c-0,-0.086 0.013,-0.161 0.039,-0.224c0.027,-0.063 0.075,-0.094 0.145,-0.094Z" style="fill-rule:nonzero;stroke:black;stroke-width:0.05px;stroke-linejoin:round;stroke-miterlimit:2;"/>
        </g>
        <g transform="matrix(12,0,0,12,435.081,502.823)">
            <path d="M0.5,-0.005c-0.012,0 -0.022,-0.005 -0.028,-0.016c-0.008,-0.01 -0.014,-0.026 -0.019,-0.048c-0.005,-0.021 -0.014,-0.059 -0.025,-0.113c-0.011,0.045 -0.033,0.08 -0.064,0.107c-0.031,0.026 -0.07,0.039 -0.115,0.039c-0.041,-0 -0.076,-0.015 -0.104,-0.044c-0.029,-0.029 -0.05,-0.067 -0.064,-0.115c-0.014,-0.047 -0.021,-0.099 -0.021,-0.154c0,-0.025 0.003,-0.047 0.008,-0.066c0.005,-0.018 0.011,-0.032 0.019,-0.041c0.007,-0.009 0.015,-0.014 0.022,-0.013c0.008,-0 0.012,0.005 0.012,0.016c0,0.009 -0.002,0.022 -0.007,0.041c-0.005,0.021 -0.007,0.044 -0.007,0.071c0,0.04 0.006,0.079 0.018,0.117c0.011,0.038 0.029,0.069 0.052,0.093c0.023,0.025 0.05,0.037 0.081,0.037c0.026,-0 0.05,-0.008 0.071,-0.023c0.021,-0.015 0.038,-0.035 0.051,-0.058c0.012,-0.023 0.018,-0.046 0.018,-0.069l0,-0.159c0.007,-0.014 0.017,-0.021 0.03,-0.021c0.011,0 0.019,0.01 0.023,0.029c0.004,0.019 0.006,0.047 0.006,0.082c0,0.03 -0,0.053 -0.001,0.069c0.004,0.022 0.01,0.044 0.019,0.067c0.008,0.023 0.018,0.048 0.031,0.077c0.015,0.035 0.023,0.057 0.023,0.065c0,0.02 -0.01,0.03 -0.029,0.03Z" style="fill-rule:nonzero;stroke:black;stroke-width:0.05px;stroke-linejoin:round;stroke-miterlimit:2;"/>
        </g>
        <g transform="matrix(12,0,0,12,441.909,502.823)">
            <path d="M0.135,0.004c-0.009,0.003 -0.015,0.004 -0.016,0.004c-0.005,0 -0.011,-0.003 -0.017,-0.008c-0.022,-0.033 -0.038,-0.09 -0.048,-0.171c-0.009,-0.081 -0.014,-0.151 -0.014,-0.21c-0,-0.009 0.007,-0.014 0.02,-0.014c0.02,0 0.03,0.011 0.03,0.033c0,0.006 -0,0.011 -0.001,0.015c0.006,-0.014 0.017,-0.028 0.034,-0.043c0.017,-0.015 0.036,-0.027 0.058,-0.037c0.022,-0.01 0.044,-0.015 0.067,-0.015c0.071,-0 0.123,0.031 0.156,0.094c0.033,0.063 0.049,0.142 0.049,0.235c0,0.032 -0.003,0.057 -0.01,0.076c-0.007,0.019 -0.016,0.029 -0.027,0.029c-0.012,-0 -0.018,-0.004 -0.018,-0.011c0.005,-0.035 0.007,-0.07 0.007,-0.104c0,-0.086 -0.015,-0.151 -0.045,-0.196c-0.03,-0.044 -0.07,-0.066 -0.119,-0.066c-0.024,-0 -0.047,0.006 -0.069,0.018c-0.023,0.012 -0.041,0.029 -0.054,0.05c-0.014,0.021 -0.021,0.046 -0.021,0.073c0,0.031 0.002,0.057 0.005,0.08c0.003,0.023 0.009,0.05 0.016,0.082c0.008,0.031 0.014,0.06 0.017,0.086Z" style="fill-rule:nonzero;stroke:black;stroke-width:0.05px;stroke-linejoin:round;stroke-miterlimit:2;"/>
        </g>
        <g transform="matrix(12,0,0,12,447.825,502.823)">
            <path d="M0.069,0.189c-0.008,-0 -0.013,-0.003 -0.016,-0.01c-0.002,-0.006 -0.003,-0.014 -0.003,-0.025c0,-0.022 0.005,-0.053 0.015,-0.093c0.001,-0.004 0.003,-0.017 0.008,-0.038c0.005,-0.021 0.007,-0.041 0.007,-0.06l-0.001,-0.037c-0.008,0 -0.013,-0.002 -0.016,-0.005c-0.002,-0.003 -0.003,-0.007 -0.003,-0.014c-0,-0.015 0.002,-0.027 0.007,-0.036c0.005,-0.009 0.015,-0.013 0.028,-0.013c0.017,0 0.028,0.008 0.033,0.023c0.006,0.015 0.009,0.035 0.009,0.058l-0.001,0.033c0,0.014 -0.003,0.039 -0.009,0.076c-0.006,0.036 -0.014,0.069 -0.024,0.098c-0.01,0.028 -0.021,0.043 -0.034,0.043Z" style="fill-rule:nonzero;stroke:black;stroke-width:0.05px;stroke-linejoin:round;stroke-miterlimit:2;"/>
        </g>
        <g transform="matrix(12,0,0,12,452.889,502.823)">
            <path d="M0.484,-0.005c-0.037,0 -0.067,-0.007 -0.09,-0.021c-0.024,-0.015 -0.04,-0.037 -0.049,-0.068c-0.02,0.035 -0.043,0.061 -0.069,0.078c-0.026,0.017 -0.054,0.025 -0.084,0.025c-0.052,0 -0.092,-0.019 -0.12,-0.056c-0.028,-0.037 -0.042,-0.098 -0.042,-0.181c-0,-0.039 0.004,-0.073 0.012,-0.1c0.009,-0.027 0.023,-0.052 0.043,-0.075c0.009,0.003 0.015,0.008 0.017,0.013c0.003,0.006 0.004,0.014 0.004,0.025c-0,0.011 -0.001,0.021 -0.004,0.032c-0.002,0.011 -0.003,0.017 -0.004,0.019c-0.005,0.02 -0.008,0.037 -0.011,0.052c-0.002,0.015 -0.003,0.034 -0.003,0.056c-0,0.048 0.009,0.087 0.027,0.117c0.019,0.031 0.045,0.046 0.08,0.046c0.039,-0 0.07,-0.013 0.093,-0.039c0.022,-0.025 0.033,-0.057 0.033,-0.096l-0.007,-0.102c-0,-0.004 0.003,-0.008 0.008,-0.012c0.006,-0.004 0.013,-0.006 0.02,-0.006c0.009,0 0.016,0.006 0.019,0.019c0.003,0.013 0.006,0.033 0.009,0.06c0.004,0.034 0.008,0.062 0.013,0.083c0.005,0.022 0.015,0.041 0.03,0.057c0.015,0.017 0.036,0.025 0.064,0.025c0.034,-0 0.059,-0.01 0.074,-0.029c0.015,-0.019 0.023,-0.043 0.023,-0.074c-0,-0.027 -0.005,-0.056 -0.016,-0.087c-0.01,-0.03 -0.022,-0.055 -0.037,-0.074c-0.001,-0.006 0.002,-0.011 0.009,-0.015c0.007,-0.004 0.015,-0.005 0.022,-0.003c0.012,0.003 0.023,0.013 0.033,0.032c0.011,0.019 0.019,0.042 0.025,0.07c0.007,0.028 0.01,0.056 0.01,0.084c-0,0.042 -0.011,0.077 -0.032,0.104c-0.021,0.027 -0.054,0.041 -0.1,0.041Z" style="fill-rule:nonzero;stroke:black;stroke-width:0.05px;stroke-linejoin:round;stroke-miterlimit:2;"/>
        </g>
        <g transform="matrix(12,0,0,12,460.521,502.823)">
            <path d="M0.15,-0.002c-0.003,0.001 -0.007,-0.012 -0.01,-0.038c-0.004,-0.026 -0.009,-0.071 -0.015,-0.134c-0.009,-0.104 -0.02,-0.199 -0.031,-0.286c-0.012,-0.087 -0.027,-0.162 -0.044,-0.225c-0.001,-0.005 0.001,-0.01 0.006,-0.014c0.005,-0.004 0.013,-0.006 0.022,-0.006c0.005,0 0.008,0 0.011,0.001c0.017,0.045 0.029,0.085 0.036,0.12c0.007,0.035 0.013,0.077 0.019,0.128l0.005,0.039c0.04,-0.024 0.077,-0.036 0.11,-0.036c0.061,0 0.104,0.028 0.13,0.083c0.025,0.054 0.038,0.133 0.038,0.234c0,0.039 -0.002,0.071 -0.007,0.098c-0.005,0.026 -0.01,0.039 -0.017,0.039c-0.009,0 -0.018,-0.006 -0.029,-0.019l0,-0.033l0.001,-0.109c0,-0.021 -0.001,-0.046 -0.002,-0.077c-0.002,-0.052 -0.012,-0.091 -0.031,-0.118c-0.019,-0.027 -0.052,-0.04 -0.098,-0.04c-0.031,0 -0.059,0.011 -0.086,0.034c0,0.025 0.001,0.051 0.004,0.078c0.002,0.027 0.005,0.053 0.008,0.078c0.005,0.035 0.008,0.066 0.011,0.093c0.002,0.027 0.003,0.057 0.003,0.09c-0.004,0.008 -0.009,0.013 -0.013,0.016c-0.005,0.003 -0.012,0.004 -0.021,0.004Z" style="fill-rule:nonzero;stroke:black;stroke-width:0.05px;stroke-linejoin:round;stroke-miterlimit:2;"/>
        </g>
        <g transform="matrix(12,0,0,12,466.221,502.823)">
            <path d="M0.107,0.001c-0.015,0 -0.028,-0.023 -0.037,-0.068c-0.009,-0.045 -0.015,-0.083 -0.018,-0.116c-0.003,-0.033 -0.006,-0.084 -0.011,-0.155c-0.001,-0.011 -0.001,-0.026 -0.001,-0.044c-0,-0.023 0.002,-0.038 0.005,-0.047c0.004,-0.009 0.01,-0.013 0.019,-0.013c0.007,-0 0.013,0.002 0.018,0.004c0.004,0.003 0.008,0.008 0.011,0.015l-0.001,0.04c0,0.043 0.002,0.083 0.007,0.121c0.004,0.038 0.011,0.089 0.02,0.153c0.005,0.028 0.009,0.051 0.011,0.069c0.001,0.009 -0,0.018 -0.005,0.027c-0.005,0.009 -0.011,0.014 -0.018,0.014Zm-0.025,-0.55c-0.015,0 -0.025,-0.006 -0.032,-0.017c-0.007,-0.011 -0.011,-0.025 -0.011,-0.042c0,-0.007 0,-0.013 0.001,-0.016c-0.001,-0.011 0.005,-0.016 0.018,-0.016c0.009,0 0.019,0.002 0.029,0.007c0.009,0.004 0.012,0.007 0.008,0.009c0.007,0.017 0.01,0.031 0.01,0.041c0,0.009 -0.002,0.016 -0.006,0.021c-0.004,0.005 -0.01,0.009 -0.017,0.013Z" style="fill-rule:nonzero;stroke:black;stroke-width:0.05px;stroke-linejoin:round;stroke-miterlimit:2;"/>
        </g>
        <g transform="matrix(12,0,0,12,468.381,502.823)">
            <path d="M0.095,-0.007c-0.015,-0.073 -0.026,-0.159 -0.034,-0.259c-0.007,-0.099 -0.011,-0.196 -0.011,-0.289c0,-0.047 0.001,-0.088 0.003,-0.124c-0,-0.009 0.007,-0.013 0.02,-0.013c0.011,-0 0.017,0.003 0.02,0.008c0.003,0.005 0.005,0.014 0.005,0.025c0,0.108 0.002,0.2 0.006,0.276c0.004,0.077 0.009,0.159 0.016,0.247c0.004,0.057 0.007,0.095 0.008,0.115c0.001,0.011 -0.005,0.016 -0.017,0.016c-0.004,-0 -0.009,-0.001 -0.016,-0.002Z" style="fill-rule:nonzero;stroke:black;stroke-width:0.05px;stroke-linejoin:round;stroke-miterlimit:2;"/>
        </g>
        <g transform="matrix(12,0,0,12,470.397,502.823)">
            <path d="M0.276,-0c-0.043,-0 -0.082,-0.008 -0.118,-0.025c-0.036,-0.017 -0.065,-0.04 -0.086,-0.071c-0.021,-0.031 -0.032,-0.066 -0.032,-0.106c-0,-0.045 0.008,-0.087 0.025,-0.126c0.017,-0.038 0.041,-0.07 0.073,-0.093c0.033,-0.024 0.071,-0.036 0.114,-0.036c0.045,0 0.08,0.015 0.103,0.044c0.023,0.029 0.034,0.065 0.033,0.109c0,0.039 -0.015,0.069 -0.046,0.09c-0.032,0.021 -0.071,0.031 -0.119,0.031c-0.007,0 -0.018,-0.001 -0.033,-0.002c-0.024,-0.003 -0.041,-0.006 -0.051,-0.011c-0.01,-0.005 -0.015,-0.014 -0.015,-0.028c-0,-0.005 0.001,-0.008 0.004,-0.01c0.003,-0.003 0.008,-0.004 0.016,-0.004c0.009,0 0.024,0.002 0.046,0.006c0.021,0.004 0.04,0.006 0.057,0.006c0.061,0 0.092,-0.027 0.092,-0.08c0,-0.032 -0.006,-0.057 -0.017,-0.076c-0.012,-0.019 -0.033,-0.028 -0.062,-0.028c-0.032,0 -0.061,0.009 -0.086,0.026c-0.025,0.017 -0.045,0.039 -0.058,0.066c-0.014,0.027 -0.021,0.056 -0.021,0.087c0,0.053 0.015,0.096 0.044,0.13c0.029,0.033 0.075,0.05 0.136,0.05c0.007,0 0.02,-0.001 0.037,-0.002c0.007,-0.001 0.016,-0.003 0.027,-0.006c0.011,-0.003 0.018,-0.006 0.023,-0.007c0.029,-0.01 0.05,-0.015 0.063,-0.015c0.01,0 0.018,0.003 0.023,0.008c-0.017,0.025 -0.041,0.044 -0.074,0.056c-0.033,0.011 -0.066,0.017 -0.098,0.017Z" style="fill-rule:nonzero;stroke:black;stroke-width:0.05px;stroke-linejoin:round;stroke-miterlimit:2;"/>
        </g>
        <g transform="matrix(12,0,0,12,478.773,502.823)">
            <path d="M0.309,0.001c-0.053,0 -0.095,-0.01 -0.126,-0.032c-0.031,-0.02 -0.053,-0.053 -0.068,-0.096c-0.015,-0.042 -0.024,-0.1 -0.029,-0.173l-0.029,-0.169c-0.003,-0.025 -0.006,-0.049 -0.011,-0.072c-0.005,-0.023 -0.007,-0.04 -0.007,-0.05c0,-0.014 0.004,-0.024 0.012,-0.031c0.008,-0.007 0.022,-0.012 0.043,-0.015c0.004,0.033 0.007,0.058 0.008,0.075c0.007,0.065 0.013,0.114 0.018,0.149c0.005,0.034 0.012,0.07 0.02,0.107c0.051,-0.023 0.101,-0.034 0.148,-0.034c0.043,0 0.081,0.009 0.114,0.027c0.033,0.017 0.059,0.042 0.078,0.074c0.019,0.031 0.028,0.067 0.028,0.106c0,0.046 -0.02,0.08 -0.061,0.102c-0.04,0.021 -0.086,0.032 -0.138,0.032Zm0.143,-0.132c0.001,-0.005 0.001,-0.011 0.001,-0.02c0,-0.047 -0.016,-0.083 -0.048,-0.106c-0.033,-0.023 -0.079,-0.035 -0.138,-0.035c-0.037,0 -0.065,0.007 -0.086,0.022c-0.02,0.014 -0.03,0.033 -0.03,0.058c0,0.057 0.016,0.098 0.047,0.124c0.031,0.026 0.078,0.039 0.142,0.039c0.031,0 0.056,-0.007 0.077,-0.021c0.021,-0.014 0.032,-0.034 0.035,-0.061Z" style="fill-rule:nonzero;stroke:black;stroke-width:0.05px;stroke-linejoin:round;stroke-miterlimit:2;"/>
        </g>
        <g transform="matrix(12,0,0,12,485.109,502.823)">
            <path d="M0.276,-0c-0.043,-0 -0.082,-0.008 -0.118,-0.025c-0.036,-0.017 -0.065,-0.04 -0.086,-0.071c-0.021,-0.031 -0.032,-0.066 -0.032,-0.106c-0,-0.045 0.008,-0.087 0.025,-0.126c0.017,-0.038 0.041,-0.07 0.073,-0.093c0.033,-0.024 0.071,-0.036 0.114,-0.036c0.045,0 0.08,0.015 0.103,0.044c0.023,0.029 0.034,0.065 0.033,0.109c0,0.039 -0.015,0.069 -0.046,0.09c-0.032,0.021 -0.071,0.031 -0.119,0.031c-0.007,0 -0.018,-0.001 -0.033,-0.002c-0.024,-0.003 -0.041,-0.006 -0.051,-0.011c-0.01,-0.005 -0.015,-0.014 -0.015,-0.028c-0,-0.005 0.001,-0.008 0.004,-0.01c0.003,-0.003 0.008,-0.004 0.016,-0.004c0.009,0 0.024,0.002 0.046,0.006c0.021,0.004 0.04,0.006 0.057,0.006c0.061,0 0.092,-0.027 0.092,-0.08c0,-0.032 -0.006,-0.057 -0.017,-0.076c-0.012,-0.019 -0.033,-0.028 -0.062,-0.028c-0.032,0 -0.061,0.009 -0.086,0.026c-0.025,0.017 -0.045,0.039 -0.058,0.066c-0.014,0.027 -0.021,0.056 -0.021,0.087c0,0.053 0.015,0.096 0.044,0.13c0.029,0.033 0.075,0.05 0.136,0.05c0.007,0 0.02,-0.001 0.037,-0.002c0.007,-0.001 0.016,-0.003 0.027,-0.006c0.011,-0.003 0.018,-0.006 0.023,-0.007c0.029,-0.01 0.05,-0.015 0.063,-0.015c0.01,0 0.018,0.003 0.023,0.008c-0.017,0.025 -0.041,0.044 -0.074,0.056c-0.033,0.011 -0.066,0.017 -0.098,0.017Z" style="fill-rule:nonzero;stroke:black;stroke-width:0.05px;stroke-linejoin:round;stroke-miterlimit:2;"/>
        </g>
        <g transform="matrix(12,0,0,12,490.485,502.823)">
            <path d="M0.107,0.001c-0.015,0 -0.028,-0.023 -0.037,-0.068c-0.009,-0.045 -0.015,-0.083 -0.018,-0.116c-0.003,-0.033 -0.006,-0.084 -0.011,-0.155c-0.001,-0.011 -0.001,-0.026 -0.001,-0.044c-0,-0.023 0.002,-0.038 0.005,-0.047c0.004,-0.009 0.01,-0.013 0.019,-0.013c0.007,-0 0.013,0.002 0.018,0.004c0.004,0.003 0.008,0.008 0.011,0.015l-0.001,0.04c0,0.043 0.002,0.083 0.007,0.121c0.004,0.038 0.011,0.089 0.02,0.153c0.005,0.028 0.009,0.051 0.011,0.069c0.001,0.009 -0,0.018 -0.005,0.027c-0.005,0.009 -0.011,0.014 -0.018,0.014Zm-0.025,-0.55c-0.015,0 -0.025,-0.006 -0.032,-0.017c-0.007,-0.011 -0.011,-0.025 -0.011,-0.042c0,-0.007 0,-0.013 0.001,-0.016c-0.001,-0.011 0.005,-0.016 0.018,-0.016c0.009,0 0.019,0.002 0.029,0.007c0.009,0.004 0.012,0.007 0.008,0.009c0.007,0.017 0.01,0.031 0.01,0.041c0,0.009 -0.002,0.016 -0.006,0.021c-0.004,0.005 -0.01,0.009 -0.017,0.013Z" style="fill-rule:nonzero;stroke:black;stroke-width:0.05px;stroke-linejoin:round;stroke-miterlimit:2;"/>
        </g>
        <g transform="matrix(12,0,0,12,492.645,502.823)">
            <path d="M0.135,0.004c-0.009,0.003 -0.015,0.004 -0.016,0.004c-0.005,0 -0.011,-0.003 -0.017,-0.008c-0.022,-0.033 -0.038,-0.09 -0.048,-0.171c-0.009,-0.081 -0.014,-0.151 -0.014,-0.21c-0,-0.009 0.007,-0.014 0.02,-0.014c0.02,0 0.03,0.011 0.03,0.033c0,0.006 -0,0.011 -0.001,0.015c0.006,-0.014 0.017,-0.028 0.034,-0.043c0.017,-0.015 0.036,-0.027 0.058,-0.037c0.022,-0.01 0.044,-0.015 0.067,-0.015c0.071,-0 0.123,0.031 0.156,0.094c0.033,0.063 0.049,0.142 0.049,0.235c0,0.032 -0.003,0.057 -0.01,0.076c-0.007,0.019 -0.016,0.029 -0.027,0.029c-0.012,-0 -0.018,-0.004 -0.018,-0.011c0.005,-0.035 0.007,-0.07 0.007,-0.104c0,-0.086 -0.015,-0.151 -0.045,-0.196c-0.03,-0.044 -0.07,-0.066 -0.119,-0.066c-0.024,-0 -0.047,0.006 -0.069,0.018c-0.023,0.012 -0.041,0.029 -0.054,0.05c-0.014,0.021 -0.021,0.046 -0.021,0.073c0,0.031 0.002,0.057 0.005,0.08c0.003,0.023 0.009,0.05 0.016,0.082c0.008,0.031 0.014,0.06 0.017,0.086Z" style="fill-rule:nonzero;stroke:black;stroke-width:0.05px;stroke-linejoin:round;stroke-miterlimit:2;"/>
        </g>
        <g transform="matrix(12,0,0,12,498.561,502.823)">
            <path d="M0.208,0.488c-0.056,0 -0.103,-0.016 -0.141,-0.047c-0.037,-0.032 -0.06,-0.085 -0.067,-0.16c-0.001,-0.011 0.001,-0.02 0.006,-0.026c0.004,-0.006 0.01,-0.009 0.017,-0.009c0.008,0 0.015,0.003 0.021,0.01c0.006,0.006 0.009,0.014 0.008,0.025c0,0.044 0.015,0.079 0.046,0.104c0.03,0.026 0.069,0.039 0.116,0.039c0.027,0 0.051,-0.01 0.073,-0.03c0.021,-0.02 0.037,-0.048 0.048,-0.084c0.011,-0.035 0.017,-0.076 0.017,-0.122c0,-0.081 0.001,-0.159 0.003,-0.235l0.001,-0.051c-0.026,0.027 -0.05,0.047 -0.071,0.06c-0.021,0.013 -0.046,0.019 -0.075,0.019c-0.051,0 -0.089,-0.014 -0.114,-0.041c-0.024,-0.028 -0.036,-0.071 -0.036,-0.128c-0,-0.033 0.009,-0.067 0.026,-0.102c0.018,-0.036 0.042,-0.066 0.073,-0.09c0.031,-0.024 0.067,-0.036 0.106,-0.036c0.013,-0 0.026,0.001 0.037,0.004c0.043,0.009 0.071,0.049 0.086,0.119c0.015,0.07 0.022,0.161 0.022,0.272c-0,0.031 -0.001,0.071 -0.002,0.122l-0.001,0.095c0,0.038 -0.006,0.08 -0.018,0.125c-0.012,0.045 -0.033,0.084 -0.063,0.117c-0.03,0.033 -0.069,0.05 -0.118,0.05Zm-0.013,-0.573c0.049,0 0.087,-0.012 0.112,-0.035c0.025,-0.024 0.038,-0.059 0.038,-0.105c0,-0.006 -0.001,-0.016 -0.002,-0.031c-0.003,-0.031 -0.011,-0.055 -0.023,-0.072c-0.013,-0.018 -0.032,-0.027 -0.058,-0.027c-0.027,0 -0.052,0.01 -0.075,0.029c-0.023,0.019 -0.04,0.043 -0.053,0.072c-0.013,0.028 -0.019,0.054 -0.019,0.079c0,0.025 0.007,0.046 0.022,0.064c0.015,0.017 0.034,0.026 0.058,0.026Z" style="fill-rule:nonzero;stroke:black;stroke-width:0.05px;stroke-linejoin:round;stroke-miterlimit:2;"/>
        </g>
        <g transform="matrix(12,0,0,12,506.961,502.823)">
            <path d="M0.158,0.356c-0.013,0 -0.029,-0.036 -0.048,-0.107c-0.018,-0.071 -0.034,-0.15 -0.049,-0.237c-0.014,-0.087 -0.021,-0.142 -0.021,-0.165c0,-0.067 0.023,-0.116 0.068,-0.147c0.045,-0.031 0.104,-0.047 0.175,-0.047c0.038,0 0.074,0.008 0.108,0.024c0.034,0.015 0.061,0.037 0.082,0.067c0.021,0.028 0.031,0.062 0.031,0.1c0,0.047 -0.017,0.081 -0.049,0.1c-0.034,0.019 -0.075,0.029 -0.125,0.029c-0.052,-0 -0.096,-0.009 -0.133,-0.027c-0.036,-0.017 -0.054,-0.041 -0.054,-0.072l0.001,-0.01c0.005,-0.005 0.01,-0.008 0.015,-0.008c0.005,0 0.01,0.002 0.015,0.006c0.006,0.003 0.012,0.007 0.019,0.012c0.021,0.015 0.041,0.028 0.061,0.037c0.021,0.009 0.046,0.014 0.077,0.014c0.042,0 0.072,-0.008 0.089,-0.023c0.018,-0.014 0.027,-0.038 0.027,-0.071c-0,-0.024 -0.008,-0.045 -0.024,-0.064c-0.016,-0.019 -0.037,-0.033 -0.062,-0.043c-0.025,-0.01 -0.051,-0.015 -0.078,-0.015c-0.062,0 -0.109,0.013 -0.14,0.04c-0.031,0.026 -0.045,0.07 -0.042,0.131c0.006,0.104 0.016,0.191 0.028,0.262c0.013,0.071 0.036,0.131 0.069,0.18l0.001,0.002c-0,0.001 -0.002,0.003 -0.005,0.005c-0.003,0.001 -0.005,0.003 -0.006,0.004c-0.008,0.013 -0.018,0.02 -0.03,0.023Z" style="fill-rule:nonzero;stroke:black;stroke-width:0.05px;stroke-linejoin:round;stroke-miterlimit:2;"/>
        </g>
        <g transform="matrix(12,0,0,12,513.489,502.823)">
            <path d="M0.128,-0c-0.027,-0.053 -0.049,-0.116 -0.065,-0.188c-0.015,-0.072 -0.023,-0.134 -0.023,-0.187c0,-0.021 0.005,-0.034 0.014,-0.04c0.005,-0.003 0.009,-0.005 0.012,-0.005c0.005,0 0.008,0.004 0.01,0.011c0.003,0.007 0.005,0.021 0.008,0.04l0.005,0.036c0.007,-0.036 0.022,-0.065 0.043,-0.086c0.02,-0.021 0.046,-0.031 0.077,-0.031c0.034,-0 0.059,0.006 0.076,0.019c0.017,0.013 0.025,0.035 0.025,0.065c-0.033,-0.016 -0.064,-0.024 -0.091,-0.024c-0.026,0 -0.048,0.007 -0.067,0.021c-0.019,0.014 -0.032,0.035 -0.039,0.062c-0.006,0.019 -0.009,0.036 -0.009,0.053c-0,0.018 0.002,0.035 0.007,0.05c0.005,0.016 0.013,0.035 0.024,0.058c0.01,0.023 0.018,0.043 0.023,0.06c0.006,0.017 0.009,0.035 0.01,0.054c-0,0.011 -0.004,0.019 -0.012,0.024c-0.008,0.005 -0.017,0.008 -0.028,0.008Z" style="fill-rule:nonzero;stroke:black;stroke-width:0.05px;stroke-linejoin:round;stroke-miterlimit:2;"/>
        </g>
        <g transform="matrix(12,0,0,12,517.209,502.823)">
            <path d="M0.247,0.001c-0.039,0 -0.075,-0.009 -0.106,-0.027c-0.032,-0.017 -0.057,-0.042 -0.075,-0.074c-0.017,-0.031 -0.026,-0.067 -0.026,-0.108c-0,-0.067 0.024,-0.116 0.073,-0.149c0.049,-0.033 0.11,-0.049 0.181,-0.049c0.033,0 0.063,0.008 0.091,0.024c0.029,0.016 0.052,0.039 0.069,0.069c0.017,0.03 0.026,0.065 0.026,0.104c-0,0.043 -0.011,0.08 -0.033,0.111c-0.022,0.032 -0.051,0.056 -0.087,0.073c-0.035,0.017 -0.073,0.026 -0.113,0.026Zm-0.011,-0.057c0.062,-0 0.109,-0.014 0.141,-0.042c0.032,-0.028 0.048,-0.069 0.048,-0.123c-0,-0.037 -0.013,-0.068 -0.038,-0.095c-0.025,-0.027 -0.059,-0.04 -0.104,-0.04c-0.03,-0 -0.06,0.006 -0.091,0.017c-0.031,0.011 -0.056,0.028 -0.076,0.051c-0.02,0.023 -0.03,0.05 -0.03,0.082c-0,0.027 0.007,0.051 0.02,0.074c0.013,0.023 0.031,0.042 0.054,0.055c0.023,0.014 0.049,0.021 0.076,0.021Z" style="fill-rule:nonzero;stroke:black;stroke-width:0.05px;stroke-linejoin:round;stroke-miterlimit:2;"/>
        </g>
        <g transform="matrix(12,0,0,12,523.449,502.823)">
            <path d="M0.211,-0.001c-0.031,0 -0.058,-0.011 -0.081,-0.032c-0.024,-0.021 -0.041,-0.049 -0.053,-0.083c-0.011,-0.034 -0.017,-0.069 -0.017,-0.106c-0,-0.064 0.013,-0.118 0.04,-0.162c0.028,-0.044 0.069,-0.066 0.124,-0.066c0.033,0 0.063,0.006 0.087,0.018c0.026,0.011 0.058,0.031 0.099,0.058l0.026,0.018c-0.003,-0.022 -0.008,-0.047 -0.015,-0.076c-0.007,-0.029 -0.011,-0.048 -0.013,-0.059c-0.011,-0.052 -0.02,-0.091 -0.025,-0.117c-0.005,-0.025 -0.007,-0.048 -0.007,-0.068c0,-0.035 0.01,-0.053 0.03,-0.053c0.007,0.016 0.016,0.05 0.026,0.102c0.01,0.053 0.023,0.124 0.038,0.215c0.016,0.096 0.03,0.174 0.042,0.235c0.012,0.061 0.022,0.099 0.03,0.114c0,0.015 -0.011,0.023 -0.034,0.023c-0.017,0 -0.029,-0.01 -0.035,-0.03c-0.007,-0.02 -0.011,-0.055 -0.012,-0.105l-0.008,-0c-0.028,0.051 -0.064,0.092 -0.109,0.125c-0.045,0.033 -0.089,0.049 -0.133,0.049Zm0.013,-0.049c0.027,-0 0.057,-0.012 0.089,-0.035c0.031,-0.023 0.058,-0.051 0.08,-0.084c0.022,-0.033 0.033,-0.062 0.033,-0.089l0,-0.03c-0.069,-0.072 -0.132,-0.108 -0.19,-0.108c-0.041,-0 -0.072,0.015 -0.094,0.044c-0.022,0.03 -0.033,0.069 -0.033,0.117l0.001,0.021c0.004,0.051 0.015,0.091 0.034,0.12c0.019,0.029 0.045,0.044 0.08,0.044Z" style="fill-rule:nonzero;stroke:black;stroke-width:0.05px;stroke-linejoin:round;stroke-miterlimit:2;"/>
        </g>
        <g transform="matrix(12,0,0,12,530.193,502.823)">
            <path d="M0.5,-0.005c-0.012,0 -0.022,-0.005 -0.028,-0.016c-0.008,-0.01 -0.014,-0.026 -0.019,-0.048c-0.005,-0.021 -0.014,-0.059 -0.025,-0.113c-0.011,0.045 -0.033,0.08 -0.064,0.107c-0.031,0.026 -0.07,0.039 -0.115,0.039c-0.041,-0 -0.076,-0.015 -0.104,-0.044c-0.029,-0.029 -0.05,-0.067 -0.064,-0.115c-0.014,-0.047 -0.021,-0.099 -0.021,-0.154c0,-0.025 0.003,-0.047 0.008,-0.066c0.005,-0.018 0.011,-0.032 0.019,-0.041c0.007,-0.009 0.015,-0.014 0.022,-0.013c0.008,-0 0.012,0.005 0.012,0.016c0,0.009 -0.002,0.022 -0.007,0.041c-0.005,0.021 -0.007,0.044 -0.007,0.071c0,0.04 0.006,0.079 0.018,0.117c0.011,0.038 0.029,0.069 0.052,0.093c0.023,0.025 0.05,0.037 0.081,0.037c0.026,-0 0.05,-0.008 0.071,-0.023c0.021,-0.015 0.038,-0.035 0.051,-0.058c0.012,-0.023 0.018,-0.046 0.018,-0.069l0,-0.159c0.007,-0.014 0.017,-0.021 0.03,-0.021c0.011,0 0.019,0.01 0.023,0.029c0.004,0.019 0.006,0.047 0.006,0.082c0,0.03 -0,0.053 -0.001,0.069c0.004,0.022 0.01,0.044 0.019,0.067c0.008,0.023 0.018,0.048 0.031,0.077c0.015,0.035 0.023,0.057 0.023,0.065c0,0.02 -0.01,0.03 -0.029,0.03Z" style="fill-rule:nonzero;stroke:black;stroke-width:0.05px;stroke-linejoin:round;stroke-miterlimit:2;"/>
        </g>
        <g transform="matrix(12,0,0,12,537.021,502.823)">
            <path d="M0.286,0.001c-0.078,0 -0.139,-0.018 -0.182,-0.054c-0.043,-0.035 -0.064,-0.09 -0.064,-0.165c-0,-0.038 0.009,-0.074 0.028,-0.109c0.019,-0.034 0.045,-0.062 0.077,-0.083c0.033,-0.021 0.068,-0.031 0.105,-0.031c0.038,0 0.07,0.008 0.097,0.025c0.027,0.016 0.04,0.039 0.04,0.07c0,0.021 -0.004,0.037 -0.011,0.046c-0.008,0.009 -0.017,0.013 -0.026,0.013c0,-0.032 -0.009,-0.058 -0.026,-0.078c-0.017,-0.02 -0.042,-0.03 -0.074,-0.03c-0.032,0 -0.06,0.009 -0.083,0.026c-0.023,0.016 -0.041,0.039 -0.053,0.067c-0.013,0.027 -0.019,0.056 -0.019,0.086c0,0.063 0.022,0.106 0.065,0.129c0.043,0.023 0.099,0.034 0.17,0.034c0.024,-0 0.055,-0.001 0.094,-0.004c0.001,-0 0.004,0.001 0.009,0.004c0.005,0.003 0.008,0.004 0.011,0.005l0,0.006c0,0.019 -0.017,0.031 -0.051,0.036c-0.034,0.005 -0.07,0.007 -0.107,0.007Z" style="fill-rule:nonzero;stroke:black;stroke-width:0.05px;stroke-linejoin:round;stroke-miterlimit:2;"/>
        </g>
        <g transform="matrix(12,0,0,12,542.349,502.823)">
            <path d="M0.201,-0c-0.007,0.001 -0.011,0.002 -0.013,0.002c-0.021,0 -0.035,-0.015 -0.043,-0.046c-0.007,-0.031 -0.011,-0.074 -0.011,-0.129c0,-0.023 0.001,-0.058 0.002,-0.106c0.001,-0.029 0.002,-0.051 0.002,-0.066c-0.082,-0 -0.123,-0.009 -0.123,-0.028c0,-0.006 0.001,-0.011 0.003,-0.014c0.001,-0.003 0.005,-0.005 0.011,-0.005l0.109,-0.007c-0.001,-0.033 -0.002,-0.068 -0.005,-0.107c-0.003,-0.035 -0.004,-0.067 -0.005,-0.096c0,-0.007 0.003,-0.013 0.009,-0.016c0.006,-0.002 0.012,-0.004 0.019,-0.004c0.008,0 0.015,0.004 0.02,0.012c0.005,0.009 0.008,0.017 0.008,0.026l0.007,0.183l0.083,0.004c0.013,-0.001 0.024,0.001 0.033,0.007c0.009,0.006 0.013,0.016 0.014,0.03c-0.014,0.006 -0.029,0.01 -0.046,0.011c-0.017,0.001 -0.045,0.002 -0.084,0.002c0,0.062 0.003,0.164 0.009,0.306c0,0.015 0,0.025 0.001,0.03c-0,0.006 0,0.01 0,0.011Z" style="fill-rule:nonzero;stroke:black;stroke-width:0.05px;stroke-linejoin:round;stroke-miterlimit:2;"/>
        </g>
        <g transform="matrix(12,0,0,12,546.381,502.823)">
            <path d="M0.107,0.001c-0.015,0 -0.028,-0.023 -0.037,-0.068c-0.009,-0.045 -0.015,-0.083 -0.018,-0.116c-0.003,-0.033 -0.006,-0.084 -0.011,-0.155c-0.001,-0.011 -0.001,-0.026 -0.001,-0.044c-0,-0.023 0.002,-0.038 0.005,-0.047c0.004,-0.009 0.01,-0.013 0.019,-0.013c0.007,-0 0.013,0.002 0.018,0.004c0.004,0.003 0.008,0.008 0.011,0.015l-0.001,0.04c0,0.043 0.002,0.083 0.007,0.121c0.004,0.038 0.011,0.089 0.02,0.153c0.005,0.028 0.009,0.051 0.011,0.069c0.001,0.009 -0,0.018 -0.005,0.027c-0.005,0.009 -0.011,0.014 -0.018,0.014Zm-0.025,-0.55c-0.015,0 -0.025,-0.006 -0.032,-0.017c-0.007,-0.011 -0.011,-0.025 -0.011,-0.042c0,-0.007 0,-0.013 0.001,-0.016c-0.001,-0.011 0.005,-0.016 0.018,-0.016c0.009,0 0.019,0.002 0.029,0.007c0.009,0.004 0.012,0.007 0.008,0.009c0.007,0.017 0.01,0.031 0.01,0.041c0,0.009 -0.002,0.016 -0.006,0.021c-0.004,0.005 -0.01,0.009 -0.017,0.013Z" style="fill-rule:nonzero;stroke:black;stroke-width:0.05px;stroke-linejoin:round;stroke-miterlimit:2;"/>
        </g>
        <g transform="matrix(12,0,0,12,548.541,502.823)">
            <path d="M0.212,0.001c-0.019,0 -0.045,-0.029 -0.075,-0.087c-0.032,-0.057 -0.067,-0.13 -0.108,-0.219l-0.029,-0.062c-0,-0.007 0.004,-0.013 0.012,-0.02c0.008,-0.006 0.02,-0.009 0.036,-0.008c0.004,0.007 0.017,0.034 0.038,0.081c0.025,0.055 0.047,0.1 0.064,0.135c0.018,0.035 0.04,0.072 0.065,0.112c0.011,-0.041 0.024,-0.08 0.038,-0.117c0.015,-0.036 0.036,-0.087 0.065,-0.154l0.015,-0.035c0.004,-0.008 0.012,-0.012 0.023,-0.012c0.008,0 0.015,0.002 0.021,0.006c0.006,0.004 0.009,0.01 0.009,0.017c-0,0.007 -0.003,0.014 -0.01,0.021c-0.005,0.005 -0.011,0.018 -0.02,0.04c-0.009,0.023 -0.018,0.048 -0.027,0.075c-0.025,0.072 -0.047,0.128 -0.066,0.168c-0.019,0.041 -0.036,0.06 -0.051,0.059Z" style="fill-rule:nonzero;stroke:black;stroke-width:0.05px;stroke-linejoin:round;stroke-miterlimit:2;"/>
        </g>
        <g transform="matrix(12,0,0,12,553.533,502.823)">
            <path d="M0.276,-0c-0.043,-0 -0.082,-0.008 -0.118,-0.025c-0.036,-0.017 -0.065,-0.04 -0.086,-0.071c-0.021,-0.031 -0.032,-0.066 -0.032,-0.106c-0,-0.045 0.008,-0.087 0.025,-0.126c0.017,-0.038 0.041,-0.07 0.073,-0.093c0.033,-0.024 0.071,-0.036 0.114,-0.036c0.045,0 0.08,0.015 0.103,0.044c0.023,0.029 0.034,0.065 0.033,0.109c0,0.039 -0.015,0.069 -0.046,0.09c-0.032,0.021 -0.071,0.031 -0.119,0.031c-0.007,0 -0.018,-0.001 -0.033,-0.002c-0.024,-0.003 -0.041,-0.006 -0.051,-0.011c-0.01,-0.005 -0.015,-0.014 -0.015,-0.028c-0,-0.005 0.001,-0.008 0.004,-0.01c0.003,-0.003 0.008,-0.004 0.016,-0.004c0.009,0 0.024,0.002 0.046,0.006c0.021,0.004 0.04,0.006 0.057,0.006c0.061,0 0.092,-0.027 0.092,-0.08c0,-0.032 -0.006,-0.057 -0.017,-0.076c-0.012,-0.019 -0.033,-0.028 -0.062,-0.028c-0.032,0 -0.061,0.009 -0.086,0.026c-0.025,0.017 -0.045,0.039 -0.058,0.066c-0.014,0.027 -0.021,0.056 -0.021,0.087c0,0.053 0.015,0.096 0.044,0.13c0.029,0.033 0.075,0.05 0.136,0.05c0.007,0 0.02,-0.001 0.037,-0.002c0.007,-0.001 0.016,-0.003 0.027,-0.006c0.011,-0.003 0.018,-0.006 0.023,-0.007c0.029,-0.01 0.05,-0.015 0.063,-0.015c0.01,0 0.018,0.003 0.023,0.008c-0.017,0.025 -0.041,0.044 -0.074,0.056c-0.033,0.011 -0.066,0.017 -0.098,0.017Z" style="fill-rule:nonzero;stroke:black;stroke-width:0.05px;stroke-linejoin:round;stroke-miterlimit:2;"/>
        </g>
        <g transform="matrix(12,0,0,12,420.927,514.823)">
            <path d="M0.107,0.001c-0.015,0 -0.028,-0.023 -0.037,-0.068c-0.009,-0.045 -0.015,-0.083 -0.018,-0.116c-0.003,-0.033 -0.006,-0.084 -0.011,-0.155c-0.001,-0.011 -0.001,-0.026 -0.001,-0.044c-0,-0.023 0.002,-0.038 0.005,-0.047c0.004,-0.009 0.01,-0.013 0.019,-0.013c0.007,-0 0.013,0.002 0.018,0.004c0.004,0.003 0.008,0.008 0.011,0.015l-0.001,0.04c0,0.043 0.002,0.083 0.007,0.121c0.004,0.038 0.011,0.089 0.02,0.153c0.005,0.028 0.009,0.051 0.011,0.069c0.001,0.009 -0,0.018 -0.005,0.027c-0.005,0.009 -0.011,0.014 -0.018,0.014Zm-0.025,-0.55c-0.015,0 -0.025,-0.006 -0.032,-0.017c-0.007,-0.011 -0.011,-0.025 -0.011,-0.042c0,-0.007 0,-0.013 0.001,-0.016c-0.001,-0.011 0.005,-0.016 0.018,-0.016c0.009,0 0.019,0.002 0.029,0.007c0.009,0.004 0.012,0.007 0.008,0.009c0.007,0.017 0.01,0.031 0.01,0.041c0,0.009 -0.002,0.016 -0.006,0.021c-0.004,0.005 -0.01,0.009 -0.017,0.013Z" style="fill-rule:nonzero;stroke:black;stroke-width:0.05px;stroke-linejoin:round;stroke-miterlimit:2;"/>
        </g>
        <g transform="matrix(12,0,0,12,423.087,514.823)">
            <path d="M0.045,-0.118c0.009,-0.007 0.018,-0.011 0.027,-0.011c0.008,0 0.016,0.002 0.024,0.007c0.007,0.005 0.015,0.01 0.023,0.018c0.008,0.007 0.014,0.012 0.019,0.015c0.015,0.012 0.036,0.021 0.063,0.028c0.027,0.007 0.055,0.01 0.085,0.01c0.034,-0 0.065,-0.007 0.092,-0.02c0.027,-0.013 0.04,-0.03 0.04,-0.052c0,-0.02 -0.007,-0.036 -0.022,-0.048c-0.015,-0.011 -0.032,-0.02 -0.053,-0.025c-0.021,-0.005 -0.048,-0.01 -0.082,-0.015c-0.046,-0.005 -0.082,-0.012 -0.109,-0.02c-0.027,-0.008 -0.049,-0.021 -0.065,-0.04c-0.016,-0.018 -0.024,-0.044 -0.024,-0.077c0,-0.036 0.017,-0.063 0.051,-0.081c0.034,-0.017 0.073,-0.026 0.117,-0.026c0.04,0 0.074,0.008 0.103,0.026c0.028,0.016 0.042,0.041 0.043,0.072c0.001,0.018 -0.001,0.032 -0.008,0.042c-0.007,0.011 -0.015,0.016 -0.024,0.016c-0.005,0 -0.01,-0.002 -0.013,-0.006c-0.004,-0.004 -0.006,-0.009 -0.006,-0.016c0,-0.011 0.004,-0.022 0.011,-0.035c-0.003,-0.016 -0.014,-0.028 -0.032,-0.036c-0.019,-0.008 -0.041,-0.012 -0.066,-0.012c-0.037,-0 -0.067,0.007 -0.089,0.021c-0.022,0.013 -0.033,0.029 -0.033,0.048c0,0.02 0.008,0.035 0.024,0.046c0.016,0.011 0.036,0.018 0.059,0.023c0.023,0.004 0.055,0.008 0.098,0.012c0.035,0.005 0.064,0.01 0.087,0.017c0.022,0.007 0.041,0.019 0.056,0.038c0.015,0.019 0.023,0.047 0.023,0.082c0,0.037 -0.017,0.065 -0.051,0.086c-0.034,0.021 -0.075,0.032 -0.122,0.032c-0.061,-0 -0.115,-0.01 -0.162,-0.031c-0.048,-0.021 -0.076,-0.05 -0.084,-0.088Z" style="fill-rule:nonzero;stroke:black;stroke-width:0.05px;stroke-linejoin:round;stroke-miterlimit:2;"/>
        </g>
        <g transform="matrix(12,0,0,12,432.195,514.823)">
            <path d="M0.297,-0c-0.069,-0 -0.129,-0.012 -0.181,-0.037c-0.05,-0.024 -0.076,-0.067 -0.076,-0.128c0,-0.022 0.007,-0.043 0.02,-0.064c0.013,-0.021 0.033,-0.038 0.059,-0.051c0.026,-0.012 0.058,-0.019 0.095,-0.019c0.029,0 0.053,0.001 0.073,0.004c0.02,0.003 0.043,0.01 0.069,0.022c0.026,0.012 0.053,0.031 0.081,0.057c-0.011,-0.046 -0.027,-0.086 -0.048,-0.121c-0.021,-0.035 -0.045,-0.062 -0.072,-0.08c-0.026,-0.019 -0.052,-0.029 -0.077,-0.029c-0.012,0 -0.023,0.002 -0.033,0.007c-0.011,0.004 -0.023,0.01 -0.038,0.018c-0.017,0.011 -0.029,0.016 -0.037,0.016c-0.003,0 -0.006,-0.001 -0.008,-0.004c-0.003,-0.002 -0.004,-0.005 -0.004,-0.008c0,-0.027 0.012,-0.047 0.036,-0.062c0.023,-0.015 0.052,-0.021 0.086,-0.02c0.047,0.003 0.089,0.023 0.128,0.06c0.039,0.037 0.069,0.082 0.092,0.137c0.022,0.055 0.033,0.108 0.033,0.161c-0,0.009 -0.001,0.021 -0.002,0.037l-0.032,-0.002c-0.025,-0.051 -0.058,-0.088 -0.097,-0.109c-0.04,-0.022 -0.08,-0.033 -0.12,-0.033c-0.051,0 -0.088,0.008 -0.11,0.023c-0.022,0.015 -0.033,0.038 -0.033,0.067c0,0.031 0.015,0.055 0.046,0.074c0.031,0.019 0.07,0.028 0.118,0.028c0.027,0 0.048,-0.001 0.064,-0.004c0.016,-0.003 0.033,-0.008 0.05,-0.013c0.014,-0.005 0.026,-0.008 0.037,-0.01c0.011,-0.002 0.024,-0.003 0.041,-0.003c0.019,0 0.031,0.001 0.036,0.004c0.005,0.003 0.007,0.009 0.007,0.018c0,0.007 -0.014,0.015 -0.041,0.025c-0.027,0.01 -0.058,0.019 -0.092,0.027c-0.034,0.008 -0.057,0.012 -0.07,0.012Z" style="fill-rule:nonzero;stroke:black;stroke-width:0.05px;stroke-linejoin:round;stroke-miterlimit:2;"/>
        </g>
        <g transform="matrix(12,0,0,12,438.675,514.823)">
            <path d="M0.095,-0.007c-0.015,-0.073 -0.026,-0.159 -0.034,-0.259c-0.007,-0.099 -0.011,-0.196 -0.011,-0.289c0,-0.047 0.001,-0.088 0.003,-0.124c-0,-0.009 0.007,-0.013 0.02,-0.013c0.011,-0 0.017,0.003 0.02,0.008c0.003,0.005 0.005,0.014 0.005,0.025c0,0.108 0.002,0.2 0.006,0.276c0.004,0.077 0.009,0.159 0.016,0.247c0.004,0.057 0.007,0.095 0.008,0.115c0.001,0.011 -0.005,0.016 -0.017,0.016c-0.004,-0 -0.009,-0.001 -0.016,-0.002Z" style="fill-rule:nonzero;stroke:black;stroke-width:0.05px;stroke-linejoin:round;stroke-miterlimit:2;"/>
        </g>
        <g transform="matrix(12,0,0,12,440.691,514.823)">
            <path d="M0.484,-0.005c-0.037,0 -0.067,-0.007 -0.09,-0.021c-0.024,-0.015 -0.04,-0.037 -0.049,-0.068c-0.02,0.035 -0.043,0.061 -0.069,0.078c-0.026,0.017 -0.054,0.025 -0.084,0.025c-0.052,0 -0.092,-0.019 -0.12,-0.056c-0.028,-0.037 -0.042,-0.098 -0.042,-0.181c-0,-0.039 0.004,-0.073 0.012,-0.1c0.009,-0.027 0.023,-0.052 0.043,-0.075c0.009,0.003 0.015,0.008 0.017,0.013c0.003,0.006 0.004,0.014 0.004,0.025c-0,0.011 -0.001,0.021 -0.004,0.032c-0.002,0.011 -0.003,0.017 -0.004,0.019c-0.005,0.02 -0.008,0.037 -0.011,0.052c-0.002,0.015 -0.003,0.034 -0.003,0.056c-0,0.048 0.009,0.087 0.027,0.117c0.019,0.031 0.045,0.046 0.08,0.046c0.039,-0 0.07,-0.013 0.093,-0.039c0.022,-0.025 0.033,-0.057 0.033,-0.096l-0.007,-0.102c-0,-0.004 0.003,-0.008 0.008,-0.012c0.006,-0.004 0.013,-0.006 0.02,-0.006c0.009,0 0.016,0.006 0.019,0.019c0.003,0.013 0.006,0.033 0.009,0.06c0.004,0.034 0.008,0.062 0.013,0.083c0.005,0.022 0.015,0.041 0.03,0.057c0.015,0.017 0.036,0.025 0.064,0.025c0.034,-0 0.059,-0.01 0.074,-0.029c0.015,-0.019 0.023,-0.043 0.023,-0.074c-0,-0.027 -0.005,-0.056 -0.016,-0.087c-0.01,-0.03 -0.022,-0.055 -0.037,-0.074c-0.001,-0.006 0.002,-0.011 0.009,-0.015c0.007,-0.004 0.015,-0.005 0.022,-0.003c0.012,0.003 0.023,0.013 0.033,0.032c0.011,0.019 0.019,0.042 0.025,0.07c0.007,0.028 0.01,0.056 0.01,0.084c-0,0.042 -0.011,0.077 -0.032,0.104c-0.021,0.027 -0.054,0.041 -0.1,0.041Z" style="fill-rule:nonzero;stroke:black;stroke-width:0.05px;stroke-linejoin:round;stroke-miterlimit:2;"/>
        </g>
        <g transform="matrix(12,0,0,12,448.563,514.823)">
            <path d="M0.297,-0c-0.069,-0 -0.129,-0.012 -0.181,-0.037c-0.05,-0.024 -0.076,-0.067 -0.076,-0.128c0,-0.022 0.007,-0.043 0.02,-0.064c0.013,-0.021 0.033,-0.038 0.059,-0.051c0.026,-0.012 0.058,-0.019 0.095,-0.019c0.029,0 0.053,0.001 0.073,0.004c0.02,0.003 0.043,0.01 0.069,0.022c0.026,0.012 0.053,0.031 0.081,0.057c-0.011,-0.046 -0.027,-0.086 -0.048,-0.121c-0.021,-0.035 -0.045,-0.062 -0.072,-0.08c-0.026,-0.019 -0.052,-0.029 -0.077,-0.029c-0.012,0 -0.023,0.002 -0.033,0.007c-0.011,0.004 -0.023,0.01 -0.038,0.018c-0.017,0.011 -0.029,0.016 -0.037,0.016c-0.003,0 -0.006,-0.001 -0.008,-0.004c-0.003,-0.002 -0.004,-0.005 -0.004,-0.008c0,-0.027 0.012,-0.047 0.036,-0.062c0.023,-0.015 0.052,-0.021 0.086,-0.02c0.047,0.003 0.089,0.023 0.128,0.06c0.039,0.037 0.069,0.082 0.092,0.137c0.022,0.055 0.033,0.108 0.033,0.161c-0,0.009 -0.001,0.021 -0.002,0.037l-0.032,-0.002c-0.025,-0.051 -0.058,-0.088 -0.097,-0.109c-0.04,-0.022 -0.08,-0.033 -0.12,-0.033c-0.051,0 -0.088,0.008 -0.11,0.023c-0.022,0.015 -0.033,0.038 -0.033,0.067c0,0.031 0.015,0.055 0.046,0.074c0.031,0.019 0.07,0.028 0.118,0.028c0.027,0 0.048,-0.001 0.064,-0.004c0.016,-0.003 0.033,-0.008 0.05,-0.013c0.014,-0.005 0.026,-0.008 0.037,-0.01c0.011,-0.002 0.024,-0.003 0.041,-0.003c0.019,0 0.031,0.001 0.036,0.004c0.005,0.003 0.007,0.009 0.007,0.018c0,0.007 -0.014,0.015 -0.041,0.025c-0.027,0.01 -0.058,0.019 -0.092,0.027c-0.034,0.008 -0.057,0.012 -0.07,0.012Z" style="fill-rule:nonzero;stroke:black;stroke-width:0.05px;stroke-linejoin:round;stroke-miterlimit:2;"/>
        </g>
        <g transform="matrix(12,0,0,12,455.043,514.823)">
            <path d="M0.314,0.473c-0.045,0 -0.086,-0.01 -0.122,-0.029c-0.035,-0.019 -0.064,-0.042 -0.085,-0.067c-0.021,-0.025 -0.033,-0.046 -0.036,-0.062c-0.003,-0.015 0.001,-0.026 0.011,-0.034c0.009,-0.008 0.021,-0.011 0.036,-0.01c0.021,0.049 0.045,0.087 0.074,0.114c0.029,0.027 0.07,0.041 0.123,0.042c0.037,0.001 0.067,-0.023 0.09,-0.072c0.022,-0.048 0.038,-0.107 0.047,-0.177c0.009,-0.069 0.014,-0.138 0.014,-0.205c0,-0.035 -0.001,-0.063 -0.003,-0.085c-0.051,0.062 -0.115,0.093 -0.194,0.093c-0.068,0 -0.12,-0.032 -0.157,-0.097c-0.036,-0.065 -0.059,-0.138 -0.07,-0.219c-0.001,-0.008 -0.002,-0.019 -0.002,-0.034c-0,-0.042 0.014,-0.063 0.041,-0.063c0.003,0 0.006,0.017 0.011,0.05c0.007,0.053 0.016,0.1 0.027,0.142c0.011,0.042 0.028,0.08 0.054,0.114c0.024,0.035 0.058,0.052 0.099,0.052c0.033,0 0.066,-0.011 0.1,-0.033c0.035,-0.021 0.06,-0.045 0.075,-0.072c0,-0.051 -0.007,-0.096 -0.02,-0.137c-0.012,-0.04 -0.019,-0.061 -0.02,-0.064c-0.001,-0.015 -0.002,-0.024 -0.002,-0.028c0,-0.013 0.002,-0.023 0.007,-0.029c0.004,-0.006 0.01,-0.009 0.019,-0.009c0.009,0 0.02,0.019 0.032,0.057c0.012,0.038 0.023,0.088 0.032,0.149c0.009,0.061 0.016,0.125 0.019,0.192c0.001,0.035 0.002,0.06 0.002,0.077c0,0.128 -0.016,0.234 -0.047,0.318c-0.032,0.084 -0.084,0.126 -0.155,0.126Z" style="fill-rule:nonzero;stroke:black;stroke-width:0.05px;stroke-linejoin:round;stroke-miterlimit:2;"/>
        </g>
        <g transform="matrix(12,0,0,12,461.715,514.823)">
            <path d="M0.045,-0.118c0.009,-0.007 0.018,-0.011 0.027,-0.011c0.008,0 0.016,0.002 0.024,0.007c0.007,0.005 0.015,0.01 0.023,0.018c0.008,0.007 0.014,0.012 0.019,0.015c0.015,0.012 0.036,0.021 0.063,0.028c0.027,0.007 0.055,0.01 0.085,0.01c0.034,-0 0.065,-0.007 0.092,-0.02c0.027,-0.013 0.04,-0.03 0.04,-0.052c0,-0.02 -0.007,-0.036 -0.022,-0.048c-0.015,-0.011 -0.032,-0.02 -0.053,-0.025c-0.021,-0.005 -0.048,-0.01 -0.082,-0.015c-0.046,-0.005 -0.082,-0.012 -0.109,-0.02c-0.027,-0.008 -0.049,-0.021 -0.065,-0.04c-0.016,-0.018 -0.024,-0.044 -0.024,-0.077c0,-0.036 0.017,-0.063 0.051,-0.081c0.034,-0.017 0.073,-0.026 0.117,-0.026c0.04,0 0.074,0.008 0.103,0.026c0.028,0.016 0.042,0.041 0.043,0.072c0.001,0.018 -0.001,0.032 -0.008,0.042c-0.007,0.011 -0.015,0.016 -0.024,0.016c-0.005,0 -0.01,-0.002 -0.013,-0.006c-0.004,-0.004 -0.006,-0.009 -0.006,-0.016c0,-0.011 0.004,-0.022 0.011,-0.035c-0.003,-0.016 -0.014,-0.028 -0.032,-0.036c-0.019,-0.008 -0.041,-0.012 -0.066,-0.012c-0.037,-0 -0.067,0.007 -0.089,0.021c-0.022,0.013 -0.033,0.029 -0.033,0.048c0,0.02 0.008,0.035 0.024,0.046c0.016,0.011 0.036,0.018 0.059,0.023c0.023,0.004 0.055,0.008 0.098,0.012c0.035,0.005 0.064,0.01 0.087,0.017c0.022,0.007 0.041,0.019 0.056,0.038c0.015,0.019 0.023,0.047 0.023,0.082c0,0.037 -0.017,0.065 -0.051,0.086c-0.034,0.021 -0.075,0.032 -0.122,0.032c-0.061,-0 -0.115,-0.01 -0.162,-0.031c-0.048,-0.021 -0.076,-0.05 -0.084,-0.088Z" style="fill-rule:nonzero;stroke:black;stroke-width:0.05px;stroke-linejoin:round;stroke-miterlimit:2;"/>
        </g>
        <g transform="matrix(12,0,0,12,470.823,514.823)">
            <path d="M0.201,-0c-0.007,0.001 -0.011,0.002 -0.013,0.002c-0.021,0 -0.035,-0.015 -0.043,-0.046c-0.007,-0.031 -0.011,-0.074 -0.011,-0.129c0,-0.023 0.001,-0.058 0.002,-0.106c0.001,-0.029 0.002,-0.051 0.002,-0.066c-0.082,-0 -0.123,-0.009 -0.123,-0.028c0,-0.006 0.001,-0.011 0.003,-0.014c0.001,-0.003 0.005,-0.005 0.011,-0.005l0.109,-0.007c-0.001,-0.033 -0.002,-0.068 -0.005,-0.107c-0.003,-0.035 -0.004,-0.067 -0.005,-0.096c0,-0.007 0.003,-0.013 0.009,-0.016c0.006,-0.002 0.012,-0.004 0.019,-0.004c0.008,0 0.015,0.004 0.02,0.012c0.005,0.009 0.008,0.017 0.008,0.026l0.007,0.183l0.083,0.004c0.013,-0.001 0.024,0.001 0.033,0.007c0.009,0.006 0.013,0.016 0.014,0.03c-0.014,0.006 -0.029,0.01 -0.046,0.011c-0.017,0.001 -0.045,0.002 -0.084,0.002c0,0.062 0.003,0.164 0.009,0.306c0,0.015 0,0.025 0.001,0.03c-0,0.006 0,0.01 0,0.011Z" style="fill-rule:nonzero;stroke:black;stroke-width:0.05px;stroke-linejoin:round;stroke-miterlimit:2;"/>
        </g>
        <g transform="matrix(12,0,0,12,474.855,514.823)">
            <path d="M0.15,-0.002c-0.003,0.001 -0.007,-0.012 -0.01,-0.038c-0.004,-0.026 -0.009,-0.071 -0.015,-0.134c-0.009,-0.104 -0.02,-0.199 -0.031,-0.286c-0.012,-0.087 -0.027,-0.162 -0.044,-0.225c-0.001,-0.005 0.001,-0.01 0.006,-0.014c0.005,-0.004 0.013,-0.006 0.022,-0.006c0.005,0 0.008,0 0.011,0.001c0.017,0.045 0.029,0.085 0.036,0.12c0.007,0.035 0.013,0.077 0.019,0.128l0.005,0.039c0.04,-0.024 0.077,-0.036 0.11,-0.036c0.061,0 0.104,0.028 0.13,0.083c0.025,0.054 0.038,0.133 0.038,0.234c0,0.039 -0.002,0.071 -0.007,0.098c-0.005,0.026 -0.01,0.039 -0.017,0.039c-0.009,0 -0.018,-0.006 -0.029,-0.019l0,-0.033l0.001,-0.109c0,-0.021 -0.001,-0.046 -0.002,-0.077c-0.002,-0.052 -0.012,-0.091 -0.031,-0.118c-0.019,-0.027 -0.052,-0.04 -0.098,-0.04c-0.031,0 -0.059,0.011 -0.086,0.034c0,0.025 0.001,0.051 0.004,0.078c0.002,0.027 0.005,0.053 0.008,0.078c0.005,0.035 0.008,0.066 0.011,0.093c0.002,0.027 0.003,0.057 0.003,0.09c-0.004,0.008 -0.009,0.013 -0.013,0.016c-0.005,0.003 -0.012,0.004 -0.021,0.004Z" style="fill-rule:nonzero;stroke:black;stroke-width:0.05px;stroke-linejoin:round;stroke-miterlimit:2;"/>
        </g>
        <g transform="matrix(12,0,0,12,480.555,514.823)">
            <path d="M0.276,-0c-0.043,-0 -0.082,-0.008 -0.118,-0.025c-0.036,-0.017 -0.065,-0.04 -0.086,-0.071c-0.021,-0.031 -0.032,-0.066 -0.032,-0.106c-0,-0.045 0.008,-0.087 0.025,-0.126c0.017,-0.038 0.041,-0.07 0.073,-0.093c0.033,-0.024 0.071,-0.036 0.114,-0.036c0.045,0 0.08,0.015 0.103,0.044c0.023,0.029 0.034,0.065 0.033,0.109c0,0.039 -0.015,0.069 -0.046,0.09c-0.032,0.021 -0.071,0.031 -0.119,0.031c-0.007,0 -0.018,-0.001 -0.033,-0.002c-0.024,-0.003 -0.041,-0.006 -0.051,-0.011c-0.01,-0.005 -0.015,-0.014 -0.015,-0.028c-0,-0.005 0.001,-0.008 0.004,-0.01c0.003,-0.003 0.008,-0.004 0.016,-0.004c0.009,0 0.024,0.002 0.046,0.006c0.021,0.004 0.04,0.006 0.057,0.006c0.061,0 0.092,-0.027 0.092,-0.08c0,-0.032 -0.006,-0.057 -0.017,-0.076c-0.012,-0.019 -0.033,-0.028 -0.062,-0.028c-0.032,0 -0.061,0.009 -0.086,0.026c-0.025,0.017 -0.045,0.039 -0.058,0.066c-0.014,0.027 -0.021,0.056 -0.021,0.087c0,0.053 0.015,0.096 0.044,0.13c0.029,0.033 0.075,0.05 0.136,0.05c0.007,0 0.02,-0.001 0.037,-0.002c0.007,-0.001 0.016,-0.003 0.027,-0.006c0.011,-0.003 0.018,-0.006 0.023,-0.007c0.029,-0.01 0.05,-0.015 0.063,-0.015c0.01,0 0.018,0.003 0.023,0.008c-0.017,0.025 -0.041,0.044 -0.074,0.056c-0.033,0.011 -0.066,0.017 -0.098,0.017Z" style="fill-rule:nonzero;stroke:black;stroke-width:0.05px;stroke-linejoin:round;stroke-miterlimit:2;"/>
        </g>
        <g transform="matrix(12,0,0,12,488.931,514.823)">
            <path d="M0.689,0.001c-0.01,0 -0.016,-0.003 -0.018,-0.009c-0.002,-0.005 -0.003,-0.014 -0.003,-0.026c0.001,-0.005 0.001,-0.01 0.001,-0.017c0,-0.006 0,-0.011 0.001,-0.014c0.004,-0.032 0.006,-0.062 0.006,-0.091c0,-0.063 -0.011,-0.113 -0.032,-0.149c-0.021,-0.035 -0.055,-0.053 -0.101,-0.053c-0.025,0 -0.051,0.006 -0.076,0.019c-0.024,0.013 -0.045,0.028 -0.061,0.047c-0.015,0.019 -0.023,0.036 -0.023,0.051c0.003,0.019 0.009,0.043 0.018,0.071c0.001,0.003 0.004,0.014 0.009,0.031c0.005,0.017 0.007,0.033 0.007,0.047l0.001,0.019c-0,0.011 -0.005,0.016 -0.016,0.016c-0.013,-0 -0.024,-0.009 -0.033,-0.026c-0.008,-0.017 -0.017,-0.044 -0.027,-0.081c-0.01,-0.036 -0.02,-0.066 -0.029,-0.089c-0.009,-0.023 -0.022,-0.043 -0.038,-0.06c-0.016,-0.017 -0.036,-0.025 -0.061,-0.025c-0.034,0 -0.06,0.012 -0.079,0.035c-0.019,0.023 -0.029,0.052 -0.029,0.086c0,0.023 0.002,0.053 0.006,0.09c0.003,0.028 0.005,0.052 0.005,0.072c0,0.012 -0.001,0.021 -0.004,0.027c-0.003,0.006 -0.009,0.009 -0.019,0.009c-0.013,0 -0.023,-0.004 -0.028,-0.013c-0.005,-0.009 -0.008,-0.023 -0.008,-0.042c0,-0.037 -0.002,-0.081 -0.006,-0.133c-0.001,-0.007 -0.002,-0.024 -0.004,-0.051c-0.002,-0.028 -0.002,-0.056 -0.001,-0.084l0.001,-0.033c0.004,-0.004 0.009,-0.006 0.014,-0.006c0.007,0 0.014,0.005 0.019,0.014c0.005,0.009 0.007,0.022 0.007,0.04c0.01,-0.017 0.025,-0.033 0.044,-0.047c0.019,-0.014 0.04,-0.021 0.061,-0.021c0.037,0 0.067,0.008 0.092,0.023c0.024,0.015 0.046,0.039 0.066,0.072c0.019,-0.034 0.047,-0.063 0.085,-0.087c0.037,-0.024 0.076,-0.036 0.116,-0.036c0.041,0 0.076,0.016 0.104,0.047c0.027,0.031 0.048,0.069 0.061,0.113c0.013,0.044 0.019,0.085 0.019,0.122c0,0.033 -0.003,0.065 -0.008,0.096c-0.006,0.031 -0.019,0.046 -0.039,0.046Z" style="fill-rule:nonzero;stroke:black;stroke-width:0.05px;stroke-linejoin:round;stroke-miterlimit:2;"/>
        </g>
        <g transform="matrix(12,0,0,12,498.243,514.823)">
            <path d="M0.297,-0c-0.069,-0 -0.129,-0.012 -0.181,-0.037c-0.05,-0.024 -0.076,-0.067 -0.076,-0.128c0,-0.022 0.007,-0.043 0.02,-0.064c0.013,-0.021 0.033,-0.038 0.059,-0.051c0.026,-0.012 0.058,-0.019 0.095,-0.019c0.029,0 0.053,0.001 0.073,0.004c0.02,0.003 0.043,0.01 0.069,0.022c0.026,0.012 0.053,0.031 0.081,0.057c-0.011,-0.046 -0.027,-0.086 -0.048,-0.121c-0.021,-0.035 -0.045,-0.062 -0.072,-0.08c-0.026,-0.019 -0.052,-0.029 -0.077,-0.029c-0.012,0 -0.023,0.002 -0.033,0.007c-0.011,0.004 -0.023,0.01 -0.038,0.018c-0.017,0.011 -0.029,0.016 -0.037,0.016c-0.003,0 -0.006,-0.001 -0.008,-0.004c-0.003,-0.002 -0.004,-0.005 -0.004,-0.008c0,-0.027 0.012,-0.047 0.036,-0.062c0.023,-0.015 0.052,-0.021 0.086,-0.02c0.047,0.003 0.089,0.023 0.128,0.06c0.039,0.037 0.069,0.082 0.092,0.137c0.022,0.055 0.033,0.108 0.033,0.161c-0,0.009 -0.001,0.021 -0.002,0.037l-0.032,-0.002c-0.025,-0.051 -0.058,-0.088 -0.097,-0.109c-0.04,-0.022 -0.08,-0.033 -0.12,-0.033c-0.051,0 -0.088,0.008 -0.11,0.023c-0.022,0.015 -0.033,0.038 -0.033,0.067c0,0.031 0.015,0.055 0.046,0.074c0.031,0.019 0.07,0.028 0.118,0.028c0.027,0 0.048,-0.001 0.064,-0.004c0.016,-0.003 0.033,-0.008 0.05,-0.013c0.014,-0.005 0.026,-0.008 0.037,-0.01c0.011,-0.002 0.024,-0.003 0.041,-0.003c0.019,0 0.031,0.001 0.036,0.004c0.005,0.003 0.007,0.009 0.007,0.018c0,0.007 -0.014,0.015 -0.041,0.025c-0.027,0.01 -0.058,0.019 -0.092,0.027c-0.034,0.008 -0.057,0.012 -0.07,0.012Z" style="fill-rule:nonzero;stroke:black;stroke-width:0.05px;stroke-linejoin:round;stroke-miterlimit:2;"/>
        </g>
        <g transform="matrix(12,0,0,12,504.723,514.823)">
            <path d="M0.107,0.001c-0.015,0 -0.028,-0.023 -0.037,-0.068c-0.009,-0.045 -0.015,-0.083 -0.018,-0.116c-0.003,-0.033 -0.006,-0.084 -0.011,-0.155c-0.001,-0.011 -0.001,-0.026 -0.001,-0.044c-0,-0.023 0.002,-0.038 0.005,-0.047c0.004,-0.009 0.01,-0.013 0.019,-0.013c0.007,-0 0.013,0.002 0.018,0.004c0.004,0.003 0.008,0.008 0.011,0.015l-0.001,0.04c0,0.043 0.002,0.083 0.007,0.121c0.004,0.038 0.011,0.089 0.02,0.153c0.005,0.028 0.009,0.051 0.011,0.069c0.001,0.009 -0,0.018 -0.005,0.027c-0.005,0.009 -0.011,0.014 -0.018,0.014Zm-0.025,-0.55c-0.015,0 -0.025,-0.006 -0.032,-0.017c-0.007,-0.011 -0.011,-0.025 -0.011,-0.042c0,-0.007 0,-0.013 0.001,-0.016c-0.001,-0.011 0.005,-0.016 0.018,-0.016c0.009,0 0.019,0.002 0.029,0.007c0.009,0.004 0.012,0.007 0.008,0.009c0.007,0.017 0.01,0.031 0.01,0.041c0,0.009 -0.002,0.016 -0.006,0.021c-0.004,0.005 -0.01,0.009 -0.017,0.013Z" style="fill-rule:nonzero;stroke:black;stroke-width:0.05px;stroke-linejoin:round;stroke-miterlimit:2;"/>
        </g>
        <g transform="matrix(12,0,0,12,506.883,514.823)">
            <path d="M0.135,0.004c-0.009,0.003 -0.015,0.004 -0.016,0.004c-0.005,0 -0.011,-0.003 -0.017,-0.008c-0.022,-0.033 -0.038,-0.09 -0.048,-0.171c-0.009,-0.081 -0.014,-0.151 -0.014,-0.21c-0,-0.009 0.007,-0.014 0.02,-0.014c0.02,0 0.03,0.011 0.03,0.033c0,0.006 -0,0.011 -0.001,0.015c0.006,-0.014 0.017,-0.028 0.034,-0.043c0.017,-0.015 0.036,-0.027 0.058,-0.037c0.022,-0.01 0.044,-0.015 0.067,-0.015c0.071,-0 0.123,0.031 0.156,0.094c0.033,0.063 0.049,0.142 0.049,0.235c0,0.032 -0.003,0.057 -0.01,0.076c-0.007,0.019 -0.016,0.029 -0.027,0.029c-0.012,-0 -0.018,-0.004 -0.018,-0.011c0.005,-0.035 0.007,-0.07 0.007,-0.104c0,-0.086 -0.015,-0.151 -0.045,-0.196c-0.03,-0.044 -0.07,-0.066 -0.119,-0.066c-0.024,-0 -0.047,0.006 -0.069,0.018c-0.023,0.012 -0.041,0.029 -0.054,0.05c-0.014,0.021 -0.021,0.046 -0.021,0.073c0,0.031 0.002,0.057 0.005,0.08c0.003,0.023 0.009,0.05 0.016,0.082c0.008,0.031 0.014,0.06 0.017,0.086Z" style="fill-rule:nonzero;stroke:black;stroke-width:0.05px;stroke-linejoin:round;stroke-miterlimit:2;"/>
        </g>
        <g transform="matrix(12,0,0,12,515.799,514.823)">
            <path d="M0.208,0.488c-0.056,0 -0.103,-0.016 -0.141,-0.047c-0.037,-0.032 -0.06,-0.085 -0.067,-0.16c-0.001,-0.011 0.001,-0.02 0.006,-0.026c0.004,-0.006 0.01,-0.009 0.017,-0.009c0.008,0 0.015,0.003 0.021,0.01c0.006,0.006 0.009,0.014 0.008,0.025c0,0.044 0.015,0.079 0.046,0.104c0.03,0.026 0.069,0.039 0.116,0.039c0.027,0 0.051,-0.01 0.073,-0.03c0.021,-0.02 0.037,-0.048 0.048,-0.084c0.011,-0.035 0.017,-0.076 0.017,-0.122c0,-0.081 0.001,-0.159 0.003,-0.235l0.001,-0.051c-0.026,0.027 -0.05,0.047 -0.071,0.06c-0.021,0.013 -0.046,0.019 -0.075,0.019c-0.051,0 -0.089,-0.014 -0.114,-0.041c-0.024,-0.028 -0.036,-0.071 -0.036,-0.128c-0,-0.033 0.009,-0.067 0.026,-0.102c0.018,-0.036 0.042,-0.066 0.073,-0.09c0.031,-0.024 0.067,-0.036 0.106,-0.036c0.013,-0 0.026,0.001 0.037,0.004c0.043,0.009 0.071,0.049 0.086,0.119c0.015,0.07 0.022,0.161 0.022,0.272c-0,0.031 -0.001,0.071 -0.002,0.122l-0.001,0.095c0,0.038 -0.006,0.08 -0.018,0.125c-0.012,0.045 -0.033,0.084 -0.063,0.117c-0.03,0.033 -0.069,0.05 -0.118,0.05Zm-0.013,-0.573c0.049,0 0.087,-0.012 0.112,-0.035c0.025,-0.024 0.038,-0.059 0.038,-0.105c0,-0.006 -0.001,-0.016 -0.002,-0.031c-0.003,-0.031 -0.011,-0.055 -0.023,-0.072c-0.013,-0.018 -0.032,-0.027 -0.058,-0.027c-0.027,0 -0.052,0.01 -0.075,0.029c-0.023,0.019 -0.04,0.043 -0.053,0.072c-0.013,0.028 -0.019,0.054 -0.019,0.079c0,0.025 0.007,0.046 0.022,0.064c0.015,0.017 0.034,0.026 0.058,0.026Z" style="fill-rule:nonzero;stroke:black;stroke-width:0.05px;stroke-linejoin:round;stroke-miterlimit:2;"/>
        </g>
        <g transform="matrix(12,0,0,12,521.199,514.823)">
            <path d="M0.247,0.001c-0.039,0 -0.075,-0.009 -0.106,-0.027c-0.032,-0.017 -0.057,-0.042 -0.075,-0.074c-0.017,-0.031 -0.026,-0.067 -0.026,-0.108c-0,-0.067 0.024,-0.116 0.073,-0.149c0.049,-0.033 0.11,-0.049 0.181,-0.049c0.033,0 0.063,0.008 0.091,0.024c0.029,0.016 0.052,0.039 0.069,0.069c0.017,0.03 0.026,0.065 0.026,0.104c-0,0.043 -0.011,0.08 -0.033,0.111c-0.022,0.032 -0.051,0.056 -0.087,0.073c-0.035,0.017 -0.073,0.026 -0.113,0.026Zm-0.011,-0.057c0.062,-0 0.109,-0.014 0.141,-0.042c0.032,-0.028 0.048,-0.069 0.048,-0.123c-0,-0.037 -0.013,-0.068 -0.038,-0.095c-0.025,-0.027 -0.059,-0.04 -0.104,-0.04c-0.03,-0 -0.06,0.006 -0.091,0.017c-0.031,0.011 -0.056,0.028 -0.076,0.051c-0.02,0.023 -0.03,0.05 -0.03,0.082c-0,0.027 0.007,0.051 0.02,0.074c0.013,0.023 0.031,0.042 0.054,0.055c0.023,0.014 0.049,0.021 0.076,0.021Z" style="fill-rule:nonzero;stroke:black;stroke-width:0.05px;stroke-linejoin:round;stroke-miterlimit:2;"/>
        </g>
        <g transform="matrix(12,0,0,12,527.439,514.823)">
            <path d="M0.297,-0c-0.069,-0 -0.129,-0.012 -0.181,-0.037c-0.05,-0.024 -0.076,-0.067 -0.076,-0.128c0,-0.022 0.007,-0.043 0.02,-0.064c0.013,-0.021 0.033,-0.038 0.059,-0.051c0.026,-0.012 0.058,-0.019 0.095,-0.019c0.029,0 0.053,0.001 0.073,0.004c0.02,0.003 0.043,0.01 0.069,0.022c0.026,0.012 0.053,0.031 0.081,0.057c-0.011,-0.046 -0.027,-0.086 -0.048,-0.121c-0.021,-0.035 -0.045,-0.062 -0.072,-0.08c-0.026,-0.019 -0.052,-0.029 -0.077,-0.029c-0.012,0 -0.023,0.002 -0.033,0.007c-0.011,0.004 -0.023,0.01 -0.038,0.018c-0.017,0.011 -0.029,0.016 -0.037,0.016c-0.003,0 -0.006,-0.001 -0.008,-0.004c-0.003,-0.002 -0.004,-0.005 -0.004,-0.008c0,-0.027 0.012,-0.047 0.036,-0.062c0.023,-0.015 0.052,-0.021 0.086,-0.02c0.047,0.003 0.089,0.023 0.128,0.06c0.039,0.037 0.069,0.082 0.092,0.137c0.022,0.055 0.033,0.108 0.033,0.161c-0,0.009 -0.001,0.021 -0.002,0.037l-0.032,-0.002c-0.025,-0.051 -0.058,-0.088 -0.097,-0.109c-0.04,-0.022 -0.08,-0.033 -0.12,-0.033c-0.051,0 -0.088,0.008 -0.11,0.023c-0.022,0.015 -0.033,0.038 -0.033,0.067c0,0.031 0.015,0.055 0.046,0.074c0.031,0.019 0.07,0.028 0.118,0.028c0.027,0 0.048,-0.001 0.064,-0.004c0.016,-0.003 0.033,-0.008 0.05,-0.013c0.014,-0.005 0.026,-0.008 0.037,-0.01c0.011,-0.002 0.024,-0.003 0.041,-0.003c0.019,0 0.031,0.001 0.036,0.004c0.005,0.003 0.007,0.009 0.007,0.018c0,0.007 -0.014,0.015 -0.041,0.025c-0.027,0.01 -0.058,0.019 -0.092,0.027c-0.034,0.008 -0.057,0.012 -0.07,0.012Z" style="fill-rule:nonzero;stroke:black;stroke-width:0.05px;stroke-linejoin:round;stroke-miterlimit:2;"/>
        </g>
        <g transform="matrix(12,0,0,12,533.919,514.823)">
            <path d="M0.095,-0.007c-0.015,-0.073 -0.026,-0.159 -0.034,-0.259c-0.007,-0.099 -0.011,-0.196 -0.011,-0.289c0,-0.047 0.001,-0.088 0.003,-0.124c-0,-0.009 0.007,-0.013 0.02,-0.013c0.011,-0 0.017,0.003 0.02,0.008c0.003,0.005 0.005,0.014 0.005,0.025c0,0.108 0.002,0.2 0.006,0.276c0.004,0.077 0.009,0.159 0.016,0.247c0.004,0.057 0.007,0.095 0.008,0.115c0.001,0.011 -0.005,0.016 -0.017,0.016c-0.004,-0 -0.009,-0.001 -0.016,-0.002Z" style="fill-rule:nonzero;stroke:black;stroke-width:0.05px;stroke-linejoin:round;stroke-miterlimit:2;"/>
        </g>
    </g>
</svg>
